<svg version="1.1" id="Layer_1" xmlns="http://www.w3.org/2000/svg" x="0" y="0" viewBox="0 0 87 78" xml:space="preserve"><style>.st0{fill:#fff}</style><path class="st0" d="M30.3 27.7H5v14.4h35l-9.7-14.4zM32.9 51c8.7 0 15.7 7 15.7 15.7 0 .6 0 1.2-.1 1.8H59v-8.7h-7v-4.6h7V53c0-3.5-2.9-6.4-6.4-6.4H5v21.9h12.3c-.1-.6-.1-1.2-.1-1.8 0-8.7 7-15.7 15.7-15.7z"/><path class="st0" d="M71.5 34.2h-4.6v39.2H42c1.4-1.9 2.2-4.2 2.2-6.7 0-6.2-5.1-11.3-11.3-11.3s-11.3 5.1-11.3 11.3c0 2.5.8 4.8 2.2 6.7H5V78h78v-4.6H71.5V34.2zm-2-24.7h-2.1v4.2h2.1c1.2 0 2.2-1 2.2-2.1s-1-2.1-2.2-2.1z"/><path class="st0" d="M53.2 0v29.8H83V0H53.2zm16.3 18.4h-2.1v6.2h-4.6V5h6.6c3.7 0 6.8 3 6.8 6.7s-3 6.7-6.7 6.7z"/></svg>