<svg version="1.1" id="Capa_1" xmlns="http://www.w3.org/2000/svg" x="0" y="0" viewBox="0 0 118 114" xml:space="preserve"><style>.st0{fill:#6a9923}.st1{fill:#88b337}</style><path class="st0" d="M61.5 15.8l-6.2-9.9h-8.7c-4 0-7.7 2.1-9.7 5.5l-5.8 9.4 20.5 13 9.9-18z"/><path class="st1" d="M94.1 23.8l-7.2-12.3c-1.8-3.4-5.4-5.6-9.3-5.6H55.3L72 37.5l-9.3 5.6 27.7 3.2 13.3-27.4-9.6 4.9z"/><path class="st0" d="M105.6 45L83.2 58l9.3 16.8h14.9l3.9-6.3c2.2-3.5 2.3-7.9.3-11.5l-6-12z"/><path class="st1" d="M70.2 74.8v-9.3L51.6 85.9l18.6 24.2v-7.4h14.9c3.9.1 7.5-2.1 9.3-5.6l13-22.3H70.2z"/><path class="st0" d="M23.6 76.6L19.1 87l5.7 9.8c2.1 3.6 5.9 5.8 10 5.8h7.4v-26H23.6z"/><path class="st1" d="M46 59.9L34.8 35.7 5 37.5l10.6 6.6L8.7 58c-1.9 3.5-1.9 7.7 0 11.2l10.4 17.9 3.9-6.7 13.8-24 9.2 3.5z"/></svg>