<svg version="1.1" id="Layer_1" xmlns="http://www.w3.org/2000/svg" x="0" y="0" viewBox="0 0 82 82" xml:space="preserve"><style>.st1{fill:#fff}</style><circle cx="40.7" cy="41.3" r="41" fill="#88b337"/><path class="st1" d="M22.7 31.4c-.6-.3-1.4-.1-1.7.6l-2.5 4.9c-.3.6-.1 1.4.6 1.7.2.1.4.1.6.1.5 0 .9-.2 1.1-.7l2.5-5c.3-.5 0-1.3-.6-1.6zm5 0c-.6-.3-1.3-.1-1.7.6l-5 9.9c-.3.6-.1 1.4.6 1.7.2.1.4.1.6.1.5 0 .9-.2 1.1-.7l5-9.9c.2-.6 0-1.4-.6-1.7z"/><path class="st1" d="M70.2 31.7c-.1-.1-2.7-3-8.2-5.7-.5-.2-1.1-.1-1.5.3L56 31.8c-.3.3-.4.8-.2 1.2l2.2 6.7-3.2 3.2.8-2.4c.1-.4.1-.8-.1-1.1L51 32.6l3.9-7.7c.2-.3.2-.7 0-1.1-.1-.3-.5-.6-.8-.7-4.1-1.1-8.5-1.6-13.2-1.6-20.1 0-29 9.9-29.4 10.3-.3.3-.4.7-.3 1.1l7.4 27.2c.1.4.4.7.8.8.4.1.8.1 1.1-.2.1 0 6.3-4.7 20.3-4.7s20.2 4.6 20.3 4.7c.2.2.5.2.8.2.1 0 .3 0 .4-.1.4-.1.7-.4.8-.8l7.4-27.2c0-.4-.1-.8-.3-1.1zM61 57.9c-2.7-1.5-9.2-4.3-20.3-4.3s-17.6 2.8-20.3 4.3l-6.8-25c2-1.9 10.5-9 27.1-9 3.9 0 7.6.4 11 1.2L48.3 32c-.2.4-.2.9.1 1.2l4.6 6.9-2.3 6.9c-.2.5 0 1.1.5 1.4.5.3 1.1.2 1.5-.2l7.4-7.4c.3-.3.4-.8.3-1.3l-2.3-6.8 3.5-4.2c3.3 1.7 5.3 3.5 6.1 4.3L61 57.9z"/></svg>