<svg version="1.1" id="Layer_1" xmlns="http://www.w3.org/2000/svg" x="0" y="0" viewBox="0 0 82 82" xml:space="preserve"><style>.st1{fill:#fff}</style><circle cx="40.7" cy="41.3" r="41" fill="#88b337"/><path class="st1" d="M54.1 20.8H35.4V19h.9c.5 0 .9-.4.9-.9v-3.6c0-.5-.4-.9-.9-.9H23.8c-.5 0-.9.4-.9.9v3.6c0 .5.4.9.9.9h.9v2.4c-2.1 1-3.6 3.1-3.6 5.6v35.6c0 3.4 2.8 6.2 6.2 6.2H54c3.4 0 6.2-2.8 6.2-6.2V27c.1-3.4-2.7-6.2-6.1-6.2zm4.4 6.2v13.9L55 37.3v-8.5c0-1.5-1.2-2.7-2.7-2.7h-8.5l-3.6-3.6h13.9c2.4.1 4.4 2.1 4.4 4.5zm-5.3 8.5l-7.6-7.6h6.7c.5 0 .9.4.9.9v6.7zM24.7 15.4h10.7v1.8H24.7v-1.8zm1.8 3.6h7.1v1.8h-6.2c-.3 0-.6 0-.9.1V19zm27.6 48.1H27.4c-2.4 0-4.4-2-4.4-4.4V27c0-2.4 2-4.4 4.4-4.4h10.3l20.8 20.8v19.2c0 2.5-2 4.5-4.4 4.5z"/><path class="st1" d="M36.9 24.6c-.2-.2-.4-.3-.6-.3h-8c-2 0-3.6 1.6-3.6 3.6v33.8c0 2 1.6 3.6 3.6 3.6h24.9c2 0 3.6-1.6 3.6-3.6V44.8c0-.2-.1-.5-.3-.6L36.9 24.6zM55 61.7c0 1-.8 1.8-1.8 1.8H28.3c-1 0-1.8-.8-1.8-1.8V27.9c0-1 .8-1.8 1.8-1.8h7.6L55 45.2v16.5z"/><path class="st1" d="M33.6 53.5c0 3.3 2.3 6 5.5 6.4h.7c1.5 0 3-.6 4.2-1.6 1.3-1.2 2.1-2.9 2.1-4.7v-.2c0-1.8-.4-3.5-1.3-5l-4.2-7.6c-.3-.6-1.2-.6-1.6 0l-4.2 7.6c-.7 1.6-1.2 3.3-1.2 5.1zm2.9-4.2l3.4-6.2 3.4 6.2c.7 1.3 1.1 2.7 1.1 4.2v.2c0 1.3-.5 2.5-1.5 3.3-1 .9-2.2 1.2-3.5 1.1-2.2-.3-3.9-2.3-3.9-4.6-.1-1.5.3-2.9 1-4.2z"/><path class="st1" d="M43.4 53.7h-1.8c0 1-.8 1.8-1.8 1.8v1.8c2 0 3.6-1.6 3.6-3.6z"/></svg>