<svg xmlns="http://www.w3.org/2000/svg" viewBox="0 0 82 82"><circle cx="40.7" cy="41.3" r="41" fill="#88b337"/><path d="M70.1 37.1l-7.5-3.9 7.5-3.9c.4-.2.7-.6.7-1.1 0-.5-.2-.9-.7-1.1l-18.8-10c-.4-.2-.8-.2-1.2 0L40.7 22l-9.4-4.9c-.4-.2-.8-.2-1.2 0l-18.7 10c-.4.2-.7.6-.7 1.1 0 .5.3.9.7 1.1l7.5 3.9-7.5 3.9c-.4.2-.7.6-.7 1.1s.2.9.7 1.1l9.3 5v11.4c0 .5.2.9.7 1.1l18.8 10c.2.1.4.1.6.1.2 0 .4 0 .6-.1l18.8-10c.4-.2.7-.6.7-1.1V44.3l9.3-5c.4-.2.7-.6.7-1.1-.2-.5-.4-.9-.8-1.1zM50.7 19.6l16.1 8.6-7 3.6-16.3-8.4 7.2-3.8zm-36 8.6l16.1-8.6 7.3 3.7-16.3 8.4-7.1-3.5zm0 10l7-3.6L38 43l-7.3 3.7-16-8.5zm24.8 25.4l-16.2-8.7v-9.3l6.9 3.7c.2.1.4.1.6.1.2 0 .4 0 .6-.1l8.2-4.2-.1 18.5zm1.2-22l-16.3-8.4 16.3-8.4L57 33.2l-16.3 8.4zm17.5 13.3L42 63.6V45.1l8.2 4.2c.2.1.4.1.6.1.2 0 .4 0 .6-.1l6.9-3.7-.1 9.3zm-7.5-8.1L43.5 43l16.3-8.4 7 3.6-16.1 8.6z" fill="#fff"/></svg>