<svg version="1.1" id="Layer_1" xmlns="http://www.w3.org/2000/svg" x="0" y="0" viewBox="0 0 82 82" xml:space="preserve"><style>.st1{fill:#fff}</style><circle cx="40.7" cy="41.3" r="41" fill="#88b337"/><path class="st1" d="M65.7 35.9L48.4 18.6c-2.5-2.5-5.8-3.9-9.3-3.9H25.8c-2.4 0-4.4 2-4.4 4.4v47.4c0 .5.4.9.9.9h25.8c2.2 0 4.3-1.2 5.4-3.2 2.4-4.4 6-7.9 10.3-10.3 2-1.1 3.2-3.1 3.2-5.4V39c0-1.1-.5-2.2-1.3-3.1zm-.5 12.6c0 1.6-.9 3.1-2.3 3.8-4.7 2.5-8.5 6.4-11 11-.8 1.4-2.2 2.3-3.8 2.3h-25V19.2c0-1.5 1.2-2.6 2.6-2.6H39c3 0 5.9 1.2 8.1 3.3l17.3 17.3c.5.5.8 1.2.8 1.9v9.4z"/><path class="st1" d="M61.5 37L45.6 21.1c-1.8-1.8-4.3-2.8-6.8-2.8H27.5c-1.5 0-2.6 1.2-2.6 2.6v16.7c0 .5.4.9.9.9h35.1c.4 0 .7-.2.8-.5.1-.4 0-.8-.2-1zm-13.8-.3h-21V20.9c0-.5.4-.9.9-.9h11.3c2.1 0 4.1.8 5.6 2.3l3.3 3.3-.1 11.1zm1.8 0v-9.3l9.3 9.3h-9.3zm9.6 4.4h-5.3c-1.5 0-2.6 1.2-2.6 2.6 0 1.5 1.2 2.6 2.6 2.6h5.3c1.5 0 2.6-1.2 2.6-2.6s-1.1-2.6-2.6-2.6zm0 3.5h-5.3c-.5 0-.9-.4-.9-.9s.4-.9.9-.9h5.3c.5 0 .9.4.9.9s-.4.9-.9.9z"/></svg>