<svg version="1.1" id="Layer_1" xmlns="http://www.w3.org/2000/svg" x="0" y="0" viewBox="0 0 241 219" xml:space="preserve"><style>.st1{fill:#af0000}.st2{fill:#fff}.st3{fill:#0204ae}.st5{fill-rule:evenodd;clip-rule:evenodd;fill:#af0000}</style><circle class="st1" cx="119.8" cy="107.8" r="104.2"/><circle class="st2" cx="119.8" cy="107.8" r="100.2"/><circle class="st3" cx="119.6" cy="107.8" r="97.4"/><path d="M69 63.8L58.7 51.1l-4.6 4-1.3-1.8L64 44.1l1.5 1.7-4.8 3.8L71 62.3zm4.4-3.9l-2.6-19.6 2.4-1.3 15.6 12.5-2.4 1.3-4.6-3.7-6.8 3.8.9 5.9-2.5 1.1zm1.1-9.2l5.5-3.1-4.2-3.5c-1.3-1.1-2.2-2-3.1-2.6.4 1.1.7 2.4.9 3.5l.9 5.7zm14.5.8l-5.9-17.3 2.2-.9 5.3 15.4 8.5-2.9.9 2zm12.6-4.1L98 29.1l2.5-.4 3 16 8.8-1.7.5 2.2zm12.5-2.4l.2-18.5 13.4.2v2.2l-11-.2v5.7l10.1.2v2.2l-10.1-.2-.2 6.4h11.4v2.2zm15.1.4l4.4-18 7.9 2c1.5.4 2.6.9 3.5 1.3.7.4 1.3 1.3 1.5 2.2.2.9.2 2 0 2.9-.2 1.3-1.1 2.2-2 2.9-1.1.7-2.4.9-4.2.7.7.4.9.9 1.3 1.3.4.9.9 1.8 1.3 2.9l1.8 5.7-2.9-.7-1.5-4.4c-.4-1.3-.7-2.2-1.1-2.9-.2-.7-.7-1.1-.9-1.5-.2-.4-.7-.7-.9-.7-.2-.2-.7-.2-1.3-.4l-2.6-.7-2 8.1-2.3-.7zm4.9-9.5l5.1 1.3c1.1.2 2 .4 2.6.2.7 0 1.3-.2 1.8-.7.4-.4.7-.9.9-1.5.2-.9 0-1.5-.4-2.2-.4-.7-1.3-1.3-2.6-1.5l-5.7-1.3-1.7 5.7zm11.4 13.9l8.1-16.7 12.1 5.9-1.1 2-9.6-4.8-2.5 5 9.1 4.6-.9 1.8-9.3-4.4-2.6 5.7 10.1 5.1-.9 1.7zm16.9 1.7l2 1.3c-.4.9-.7 1.5-.7 2.2s.2 1.5.7 2.2c.4.9 1.1 1.5 2 2.2.7.7 1.5.9 2.2 1.1.7.2 1.3.2 2 0s1.1-.4 1.3-.9c.2-.4.4-.9.4-1.5s-.2-1.1-.7-1.8c-.2-.4-.9-1.3-2.2-2.6-1.1-1.3-1.8-2.4-2.2-3.1-.4-.9-.7-1.8-.4-2.6 0-.9.4-1.5.9-2.2.7-.7 1.3-1.3 2.2-1.5.9-.2 2-.4 2.9 0 1.1.2 2.2.7 3.1 1.5 1.1.9 2 1.8 2.4 2.6.4.9.9 2 .7 3.1 0 1.1-.4 2-1.1 2.9l-2-1.3c.7-1.1.7-2 .7-2.9-.2-.9-.9-1.8-2-2.6-1.1-.9-2.2-1.3-3.1-1.3-.9 0-1.5.2-2 .9-.4.4-.4 1.1-.4 1.8.2.7.9 1.8 2.2 3.3 1.3 1.5 2.2 2.6 2.6 3.3.7 1.1.9 2 .7 2.9 0 .9-.4 1.8-.9 2.6-.7.7-1.3 1.3-2.4 1.8-.9.4-2 .4-3.1.2s-2.2-.7-3.3-1.5c-1.3-1.1-2.2-2-2.9-3.1-.7-1.1-.9-2.2-.7-3.3 0-1.7.5-2.8 1.1-3.7z" fill-rule="evenodd" clip-rule="evenodd" fill="#fff"/><path class="st2" d="M167.9 92.9s.2 1.3.2 2.4c0 1.1-.2 13.8.4 13.2.9-.7.9-10.1.9-10.1s0-.4 2.2-1.5 7.7-1.3 8.8-.4c.9.7.2 6.2.2 6.2s1.1-.4 1.3-1.5c.2-1.1-.2-4.6-.2-4.6l-4.8-7-5.5.2-3.5 3.1zm-2.2-9.7L154.1 72l-.2.9s6.6 9.9 7.7 12.5c1.3 2.6 2.9 4.2 2.9 4.2s.7-.4.9-1.5c.1-.5.3-4.9.3-4.9zm-87.4 9.4l6.8-.7s7.5-10.8 8.6-12.5l-2.2-2.2c-5.5 4.9-9.9 9.9-13.2 15.4zM91 113.3l-.4-.9s-1.1-.9-2.9-.9-1.5-.9-2.2-1.5c-.7-.7-2.2-.2-2.2-.2s-1.5.9-4.4 1.1c-2.9.2-.4.4-.4.4h2.9s2.4 0 3.7 1.3.9 2.2 1.3 2.9c.4.4.4 0 1.5-.9s2 .4 2 .4l.2 4.6 33.2-2.4.2-4.8-1.5-.7-31 1.6zm-5.3-20c-1.1.2-1.5 1.5.7 1.5 2.2-.2 52.7-4.2 52.7-4.2l.7-1.3s-9.9.9-15.4 1.3c-5.5.5-37.6 2.5-38.7 2.7zm4.2 39.6v-.7c-.2-2-1.8-1.1-5.5-.9-3.5.2-4-.4-3.5 2l9-.4zm62-2.2c0-.4.2-.7.2-.7l-.9-3.7-45.3 2.2s.2 1.5.2 3.7l45.8-1.5zm-93.4-19.2v-3.7c0-3.7.2-6.2 3.5-8.6 3.3-2.6 8.6-4 11.2-3.7 2.6.2 6.2 1.8 5.7 5.7-.4 3.7-7.9 2.9-9.9 2.9-1.8-.2-1.8-1.3-1.5-3.5.2-2.2-1.3-.9-1.3-.9s-.9 5.1 1.1 5.7c2 .9 8.1.4 10.3-.4 2.2-.9 3.3-1.8 4.2-5.9.9-4.2-4-4.6-4-4.6-8.3-1-15.1 2.5-15.1 2.5s-1.8-1.8-.2-4.8c1.5-3.1 8.8-2.4 9.7-2.4.7 0 2.6 2.9 2.6 2.9l1.1.4 1.3-1.8c4.2-7.7 13.6-15.2 13.6-15.2 5.3-2.6 60.7-5.9 62.8-5.5 2.4.4 12.1 11.6 12.1 11.6s2.9-.7 5.3-1.1c2.6-.4 4.6.7 5.7 1.3 1.1.7 1.1 5.5 1.1 5.5s1.8 2.6 4 4.4c2.2 1.8 1.3 6.2 1.3 6.2s-.4 10.1-.9 17.8c-.4-.4-.7-1.1-.7-2 0-2-.4-10.5-.4-10.5s-.9-.4-.7 1.1c.2 1.5-.2 1.8-.2 1.8s-.2 3.3-2 4c-1.8.9-1.8 4.2-1.8 4.2l-.9 1.5.4 4.8.7-1.3-.2-2.9 1.5-3.7s.9-.7.9.2-.7 8.1-.9 9.9c-.2 1.8 0 2.2 1.3 2.2.7 0 .4 2 .2 3.5-1.1 1.1-2 1.5-2 1.5s-8.4.7-11.9.7h-.4c.7-1.1 1.3-2.9 1.3-4.2 0-2.2.2-3.1.2-3.1l2.9-.4-.2-.9-2.6.4V119c1.1 0 3.1.2 4.4.2 2.2 0 3.1-.2 3.1-1.1 0-.9-1.8 0-1.8 0l-5.7-.4.2-7.3-.2-6.8s-.9-2.2-2-2.6c-1.3-.4.4-6.6.4-6.6s.2-1.5-1.3-3.1c-1.5-1.5-4-3.1-5.1-3.1-1.1 0-7.5 8.8-7.5 8.8s-.9 1.8-1.8 1.5 4.6-6.8 4.6-6.8l2.2-2.6s-5.3.4-8.6.7c-2.6.2-7.3 1.5-9.2 2-1.3 1.5-3.7 5.5-2.2 7 0 0 3.1.4 7 .2 0 0 2.6.2-.7.4s-7 .4-7.7-.9c-.7-.9.7-3.7 1.3-5.5-1.8 1.3-4 3.1-4.4 4.2-.7 1.5-4.2 8.8-5.3 9.2-.9.2-1.3.4-.9-1.3.4-1.8 4.8-8.6 5.3-9 .4-.4 1.8-2.6.9-3.3-.9-.9-26.2 2.9-27 3.3-.9.2-11.6.7-11.6.7s-2.9 3.3-2.6 6.4c.4 3.1 2 8.4 2 8.4l29.9-2.2s-.4 1.3 1.3 1.3c1.5 0 3.1-1.5 4 .4.9 2 2 1.8 2.2 4.4.2 2.6.7 4.8.7 4.8l-42.2 2.9s-.9.7.4 1.3c1.3.4 68.6-4.6 68.6-4.6s1.3 1.3.2 1.3-68.6 5.1-68.6 5.1-1.8.9.2 1.1c2 .2 69.2-4.8 69.2-4.8s2.6-.9 2.6-2.9 2-7.3 2.2-11.2c.2-4 .7-5.7.7-5.7s2 .2 1.8 2.9c-.2 2.6-.2 19.1-.2 19.1s-.2 6.8-1.8 7.5c-12.5.4-85.3 3.3-85.3 3.3-5.9 0-9.9.2-10.1.2-1.3-.2-1.5-.7-1.8-3.5-.1-3.2-6.7-9.1-8-20.8zm103.3-18.4s1.8-.7 2 1.5c.2 2.2-1.1 14.1-1.3 15.8-.2 1.8-2.4 6.2-3.7 6.8s-2.9 1.3-4.2 1.5c-1.3.2-8.8.4-8.8.4l-.2-1.3s-.2-.4-2.4-.2c-2 .2-9.2.4-9.2.4l-.4-4.2 2.9-.9 2.9-.9 9 .2.4-1.3-11.9.2s.4-1.5 1.8-1.8c1.3-.2 13.4-1.3 13.4-1.3s2.2 0 2.2-1.5.4-3.3.4-3.3l2.4-.4s.7-2.4 1.3-2.9 2.6-.4 2.9-1.5c.2-1.1.4-3.7.4-3.7l.1-1.6zM133 108.2s0-1.1.4-2.2c.4-1.3 18.5-2.2 18.5-2.2l.2.9s-2.6.2-4 .7c-1.5.4-1.5 1.8-1.5 1.8l-13.6 1z"/><path class="st3" d="M3.1 144.1c0-2.6 2.2-4.8 4.8-4.8h224.8c2.6 0 4.8 2.2 4.8 4.8v53c0 2.6-2.2 4.8-4.8 4.8H7.9c-2.6 0-4.8-2.2-4.8-4.8v-53z"/><path class="st2" d="M7.3 143.4h226.3v54.7H7.3z"/><path class="st1" d="M7.1 188.7h227v5H7.1z"/><path class="st5" d="M24.2 172.8h-6.6l-1.1 3.5c-.2.9-.4 1.5-.4 2 0 .2.2.7.4.9.2.2.7.4 1.5.4v.7h-5.5v-.7c.7-.2 1.1-.4 1.3-.7.4-.4.9-1.5 1.3-3.1l5.9-18h.7l5.9 18.2c.4 1.5.9 2.4 1.3 2.9.4.4.9.7 1.8.7v.7H24v-.7c.7 0 1.1-.2 1.3-.4.2-.2.4-.7.4-.9 0-.4-.2-1.3-.4-2.2l-1.1-3.3zm-.2-1.1l-2.9-8.8-2.9 8.8H24zm.9-21l-3.7 5.5h-.4l1.3-5.5h2.8zM35 168c1.3-2 2.6-3.1 4-3.1.7 0 1.1.2 1.5.7.4.4.9 1.1 1.1 2 .2.7.2 1.8.2 3.1v6.4c0 .9 0 1.5.2 2 0 .2.2.4.4.7h1.3v.7H38v-.7h.2c.4 0 .9-.2 1.1-.2.2-.2.4-.4.4-.9V171c0-1.3-.2-2.4-.4-2.9-.2-.7-.7-.9-1.3-.9-1.1 0-2 .7-3.1 2.2v7.9c0 1.1 0 1.5.2 1.8.2.2.2.4.4.7s.7.2 1.3.2v.7h-5.7v-.9h.2c.7 0 .9-.2 1.3-.7.2-.4.2-1.1.2-2.2v-8.8c0-.4-.2-.7-.2-.7-.2-.2-.2-.2-.4-.2s-.4 0-.9.2l-.2-.7 3.5-1.8h.7L35 168zm12.5 6.8c-.7-.4-1.3-1.1-1.5-1.8-.4-.7-.7-1.8-.7-2.6 0-1.5.4-2.6 1.3-3.7s2-1.5 3.3-1.5c1.1 0 2 .2 2.9 1.1h3.1s.2 0 .2.2v1.1s0 .2-.2.2h-2.2c.4.7.7 1.8.7 3.1s-.4 2.6-1.3 3.5c-.9.9-2 1.5-3.3 1.5-.7 0-1.1-.2-1.8-.2-.4.4-.7.7-.7 1.1 0 .4-.2.7-.2.7 0 .2 0 .4.2.4.2.2.4.2.9.4.2 0 .9 0 1.8.2 1.8 0 2.9.2 3.3.2.7.2 1.3.4 1.8 1.1.4.7.7 1.3.7 2.2 0 1.3-.4 2.4-1.3 3.5-1.3 1.5-3.1 2.4-5.1 2.4-1.5 0-3.1-.4-4.2-1.3-.7-.4-.9-1.1-.9-1.8 0-.2 0-.4.2-.7.2-.4.4-.9.9-1.8 0-.2.4-.7 1.3-1.8-.4-.2-.7-.7-.9-.9-.2-.2-.2-.7-.2-.9 0-.4.2-.9.4-1.3 0-1 .6-1.7 1.5-2.6zm2.2-9c-.7 0-1.1.2-1.5.9-.4.7-.7 1.5-.7 2.9 0 1.8.2 3.1.9 4 .4.7 1.1 1.1 1.8 1.1s1.1-.2 1.5-.9.7-1.5.7-2.9c0-1.8-.2-3.1-.9-4-.7-.9-1.1-1.1-1.8-1.1zm-2.4 14.5c-.4.7-.7 1.1-.9 1.5-.2.4-.2.9-.2 1.3s.2.9.7 1.3c.9.7 2 1.1 3.7 1.1 1.5 0 2.6-.2 3.3-1.1.7-.9 1.1-1.3 1.1-2.2 0-.7-.2-.9-.7-1.3-.4-.2-1.3-.4-2.6-.4-2 0-3.3-.2-4.4-.2zm11.6-9.2c0 2.2.4 4 1.3 5.3.9 1.3 1.8 1.8 2.9 1.8.7 0 1.3-.2 2-.7.7-.4 1.1-1.5 1.3-2.6l.4.2c-.2 1.5-.7 2.9-1.5 4-.9 1.3-2 1.8-3.3 1.8-1.3 0-2.6-.7-3.5-2-.9-1.3-1.5-3.3-1.5-5.5 0-2.6.4-4.4 1.5-5.9 1.1-1.3 2.2-2.2 3.7-2.2 1.3 0 2.4.7 3.3 1.8.9 1.1 1.3 2.6 1.3 4.4l-7.9-.4zm0-1.1h5.3c0-.9-.2-1.5-.2-2-.2-.7-.4-1.1-.9-1.3-.4-.2-.9-.4-1.3-.4-.7 0-1.3.2-1.8 1.1-.6.4-.9 1.5-1.1 2.6zm13.2-12.8v19.6c0 .9 0 1.5.2 1.8.2.2.2.4.4.7.2.2.7.2 1.3.2v.7h-5.7v-.4c.4 0 .9 0 1.1-.2.2-.2.2-.4.4-.7.2-.2.2-.9.2-1.8v-16.5c0-.4-.2-.7-.2-.7-.2-.2-.2-.2-.4-.2s-.4 0-.9.2l-.2-.7 3.5-1.8.3-.2zm23.3 17l.4.2-1.5 5.9H81.1v-.7h.7c.7 0 1.3-.2 1.5-.9.2-.2.2-1.1.2-2.4V162c0-1.3-.2-2.2-.4-2.6-.2-.4-.9-.7-1.5-.7h-.7v-.7h7.7v.7c-.9 0-1.5 0-2 .2-.4.2-.7.4-.7.9-.2.2-.2 1.1-.2 2.4V176c0 .9 0 1.5.2 1.8s.2.4.4.4c.2.2.9.2 2 .2h1.3c1.3 0 2.2-.2 2.6-.4.4-.2 1.1-.7 1.5-1.3.8-.1 1.3-1.2 1.7-2.5zm11.7-8.8v12.1c0 .5.2.7.2.7.2.2.2.2.4.2s.7 0 .9-.2l.2.7-3.5 1.8h-.7v-3.1c-1.1 1.3-1.8 2.2-2.2 2.6s-1.1.4-1.8.4-1.3-.2-1.8-.7c-.4-.4-.9-1.1-1.1-1.8-.2-.7-.2-1.8-.2-3.3v-6.6c0-.7 0-1.3-.2-1.5-.2-.2-.2-.4-.4-.7-.2-.2-.7-.2-1.3-.2v-.7h4.2v10.1c0 1.3.2 2.2.7 2.6.4.4.9.7 1.3.7s.7-.2 1.3-.4c.7-.2 1.1-.9 1.8-1.8V168c0-.9-.2-1.3-.4-1.8-.2-.2-.7-.4-1.5-.4v-.7l4.1.3zm5.4-8.2c.4 0 .7.2.9.4.2.2.4.7.4 1.1s-.2.9-.4 1.1c-.2.2-.7.4-.9.4-.4 0-.7-.2-.9-.4-.2-.2-.4-.7-.4-1.1s.2-.9.4-1.1c.3-.1.5-.4.9-.4zm1.1 7.7v11.9c0 .9 0 1.5.2 1.8.2.2.2.4.4.7.2.2.7.2 1.1.2v.7h-5.7v-.4c.7 0 .9 0 1.1-.2.2-.2.2-.4.4-.7.2-.2.2-.9.2-1.8v-5.7c0-1.5 0-2.6-.2-3.1 0-.2-.2-.7-.2-.7-.2-.2-.2-.2-.4-.2s-.4 0-.9.2l-.2-.7 3.5-1.8.7-.2zm10.4 0v5.1h-.4c-.2-1.5-.7-2.6-1.3-3.3-.4-.7-1.1-.9-2-.9-.7 0-1.1.2-1.3.7-.4.4-.4.9-.4 1.3 0 .7.2 1.1.4 1.5.2.4.7.9 1.5 1.3l1.8 1.1c1.8 1.1 2.6 2.4 2.6 4.2 0 1.3-.4 2.4-1.3 3.3-.7.9-1.8 1.3-2.6 1.3-.7 0-1.5-.2-2.4-.4-.2-.2-.4-.2-.7-.2s-.2.2-.4.4h-.4v-5.1h.4c.2 1.5.7 2.6 1.3 3.5.7.7 1.3 1.1 2.2 1.1.7 0 1.1-.2 1.3-.7.4-.4.7-.9.7-1.5 0-.7-.2-1.3-.7-1.8-.4-.4-1.3-1.1-2.4-2-1.3-.7-2-1.5-2.4-2.2-.4-.7-.7-1.3-.7-2.2 0-1.3.2-2.2.9-3.1.7-.9 1.5-1.3 2.6-1.3.4 0 1.1.2 1.8.4.4.2.7.2.9.2.2 0 .2 0 .2-.2 0 0 .2-.2.2-.4l.6-.1zm13.2 3.6h7.9v-6.4c0-1.1 0-1.8-.2-2.2 0-.2-.2-.4-.4-.7-.4-.2-.7-.4-1.1-.4h-.7v-.7h7.5v.7h-.9c-.4 0-.7.2-1.1.4l-.7.7c-.2.2-.2 1.1-.2 2.2v14.3c0 1.1 0 1.8.2 2.2 0 .2.2.4.4.7.4.2.7.4 1.1.4h.7v.7h-7v-.7h.7c.7 0 1.3-.2 1.5-.7.2-.2.2-1.1.2-2.4v-6.8h-7.9v6.8c0 1.1 0 1.8.2 2.2 0 .2.2.4.4.7.4.2.7.4 1.1.4h.7v.7h-7.3v-.9h.7c.7 0 1.3-.2 1.5-.7.2-.2.2-1.1.2-2.4v-14.5c0-1.1 0-1.8-.2-2.2 0-.2-.2-.4-.4-.7-.4-.2-.7-.4-1.1-.4h-.7v-.7h7.3v.7h-.7c-.4 0-.7.2-1.1.4-.2.2-.4.4-.4.7-.2.2-.2 1.1-.2 2.2v6.4z"/><path class="st5" d="M161.1 165.4v12.1c0 .5.2.7.2.7s.2.2.4.2.7 0 .9-.2l.2.7-3.5 1.8h-.7v-3.1c-1.1 1.3-1.8 2.2-2.2 2.6s-1.1.4-1.8.4-1.3-.2-1.8-.7c-.4-.4-.9-1.1-1.1-1.8-.2-.7-.2-1.8-.2-3.3v-6.6c0-.7 0-1.3-.2-1.5.4-.2.2-.2 0-.4s-.7-.2-1.3-.2v-.7h4.2v9.9c0 1.3.2 2.2.7 2.6.4.4.9.7 1.3.7s.7-.2 1.3-.4c.4-.2 1.1-.9 1.8-1.8V168c0-.9-.2-1.3-.4-1.8-.2-.2-.7-.4-1.5-.4v-.7l3.7.3zm6.2 2.8c.9-1.1 1.3-1.8 1.5-1.8.4-.4.7-.7 1.3-.9.4-.2.9-.2 1.3-.2.7 0 1.3.2 1.8.9.4.4.9 1.3 1.1 2.4.9-1.3 1.5-2.2 2.2-2.6.7-.4 1.3-.7 1.8-.7.7 0 1.1.2 1.8.7.4.4.9 1.1 1.1 2 .2.7.2 1.5.2 2.9v6.4c0 .9 0 1.5.2 2 0 .2.2.4.4.7 0-.2.2-.2.9-.2v.7h-5.7v-.7h.2c.4 0 .9-.2 1.1-.4.2-.2.2-.4.4-.9v-7.9c0-1.3-.2-2-.2-2.6-.2-.7-.9-1.1-1.5-1.1-.4 0-.9.2-1.3.4s-1.1.9-1.8 1.5v7.9c0 1.1 0 1.8.2 1.8 0 .2.2.4.4.7.2.2.7.2 1.3.2v.7h-5.7v-.7c.7 0 1.1-.2 1.3-.2.2-.2.4-.4.4-.9v-7.9c0-1.3-.2-2.2-.4-2.6-.4-.7-.9-1.1-1.5-1.1-.4 0-.9.2-1.3.4-.7.4-1.3 1.1-1.5 1.5v7.9c0 .9 0 1.5.2 1.8.2.2.2.4.4.7s.7.2 1.3.2v.7h-5.7c.4 0 .9 0 1.1-.2.2-.2.4-.4.4-.7.2-.2.2-.9.2-1.8v-5.7c0-1.5 0-2.6-.2-3.1 0-.4-.2-.7-.2-.7-.2-.2-.2-.2-.4-.2s-.4 0-.9.2l-.2-.7 3.5-1.8h.7l-.2 3zm22.8 9.9c-1.3 1.1-2 1.8-2.2 2-.4.2-.9.4-1.5.4-.9 0-1.5-.2-2-1.1-.4-.7-.7-1.5-.7-2.6 0-.7.2-1.3.4-1.8.2-.7.9-1.3 1.8-2s2.2-1.3 4.2-2.4v-.6c0-1.5-.2-2.4-.7-3.1-.4-.7-.9-.9-1.5-.9-.4 0-.9.2-1.3.7-.2.4-.4.7-.4 1.3v.9c0 .4-.2.9-.2 1.1-.2.2-.4.4-.7.4-.2 0-.7-.2-.7-.4-.2-.2-.2-.7-.2-1.1 0-.9.4-1.8 1.1-2.6.7-.7 1.8-1.1 3.1-1.1 1.1 0 1.8.2 2.6.7.4.2.9.9 1.1 1.5.2.4.2 1.3.2 2.9v7.7c0 .2.2.4.2.7l.2.2c.2 0 .2 0 .4-.2l1.1-1.1v.9c-.9 1.5-1.8 2.4-2.6 2.4-.4 0-.7-.2-1.1-.7-.6-.5-.6-1.2-.6-2.1zm0-1.1v-5.7c-1.3.7-2.2 1.1-2.4 1.3-.7.4-1.1.9-1.3 1.5-.2.4-.4 1.1-.4 1.8s.2 1.3.7 2c.4.7.7.7 1.3.7.1.2 1-.5 2.1-1.6z"/><path class="st5" d="M198 168c1.3-2 2.6-3.1 4-3.1.7 0 1.1.2 1.5.7.4.4.9 1.1 1.1 2 .2.7.2 1.8.2 3.1v6.4c0 .9 0 1.5.2 2 0 .2.2.4.4.7.2.2.7.2 1.1.2v.7h-5.7v-.9h.2c.4 0 .9-.2 1.1-.2.2-.2.4-.4.4-.9V171c0-1.3-.2-2.4-.4-2.9-.2-.7-.7-.9-1.3-.9-1.1 0-2 .7-3.1 2.2v7.9c0 1.1 0 1.5.2 1.8.2.2.2.4.4.7.2.2.7.2 1.3.2v.7h-5.7v-.9h.2c.7 0 .9-.2 1.3-.7.2-.4.2-1.1.2-2.2v-8.8c0-.4-.2-.7-.2-.7-.2-.2-.2-.2-.4-.2s-.4 0-.9.2l-.2-.7 3.5-1.8h.7l-.1 3.1zm11.5 3.1c0 2.2.4 4 1.3 5.3.9 1.3 1.8 1.8 2.9 1.8.7 0 1.3-.2 2-.7.7-.4 1.1-1.5 1.3-2.6l.4.2c-.2 1.5-.7 2.9-1.5 4-.9 1.1-2 1.8-3.3 1.8-1.3 0-2.6-.7-3.5-2s-1.5-3.3-1.5-5.5c0-2.6.4-4.4 1.5-5.9 1.1-1.3 2.2-2.2 3.7-2.2 1.3 0 2.4.7 3.3 1.8.9 1.1 1.3 2.6 1.3 4.4l-7.9-.4zm0-1.1h5.3c0-.9-.2-1.5-.2-2-.2-.7-.4-1.1-.9-1.3-.4-.2-.9-.4-1.3-.4-.7 0-1.3.2-1.8 1.1-.9.4-1.1 1.5-1.1 2.6zm16.7-5.1v5.1h-.4c-.2-1.5-.7-2.6-1.3-3.3-.4-.7-1.1-.9-2-.9-.7 0-1.1.2-1.3.7-.4.4-.4.9-.4 1.3 0 .7.2 1.1.4 1.5.2.4.7.9 1.5 1.3l1.8 1.1c1.8 1.1 2.6 2.4 2.6 4.2 0 1.3-.4 2.4-1.3 3.3-.7.9-1.8 1.3-2.6 1.3-.7 0-1.5-.2-2.4-.4-.2-.2-.4-.2-.7-.2-.2 0-.2.2-.4.4h-.4v-5.1h.4c.2 1.5.7 2.6 1.3 3.5.7.7 1.3 1.1 2.2 1.1.7 0 1.1-.2 1.3-.7.4-.4.7-.9.7-1.5 0-.7-.2-1.3-.7-1.8-.4-.4-1.3-1.1-2.4-2-1.3-.7-2-1.5-2.4-2.2-.4-.7-.7-1.3-.7-2.2 0-1.3.2-2.2.9-3.1.7-.9 1.5-1.3 2.6-1.3.4 0 1.1.2 1.8.4.4.2.7.2.9.2.2 0 .2 0 .2-.2 0 0 .2-.2.2-.4l.6-.1z"/></svg>