<svg xmlns="http://www.w3.org/2000/svg" viewBox="0 0 270 71"><path d="M69.1 26.2c-20.1 0-23.4-3.6-17.5-24.1h-1.2c-6 20.4-11.4 24.1-31.5 24.1h-8.2l-.5 1.7h8.2c20.2 0 23.4 3.6 17.5 24.1h1.2C43 31.5 48.4 27.9 68.6 27.9h30l.5-1.7h-30" fill="#f6c800"/><path d="M71 45.2c.3-1.1 0-1.8-.6-2.2s-1.5-.6-2.5-.6c-2.3 0-3.6.7-4.1 1.8-2 4.8 17.8 1.8 12.9 13.6-3.1 7.5-10.8 11.1-19.7 11.1-8.5 0-12-5-9.8-10.8h10.1c-.3 1.2 0 2 .7 2.6.6.5 1.6.8 2.7.8 2.6 0 4.7-.8 5.4-2.4 2-4.9-17.9-1.5-12.8-13.8C56.1 38.4 63.4 35 71.5 35c9 0 11.1 4.6 9.6 10.2H71m26.8 5.3c2.5 0 4.7-1 5.8-3.8 1.2-3-2-3.4-4.2-3.4h-3l-2.9 7.2h4.3zM75.6 68.1l13.3-32.2h15.5c9.3 0 12 4.3 9.3 10.9-2.9 6.9-8.8 11.3-18 11.3h-5.3l-4.1 10H75.6m52.2-22.5l-8 11.5h6.7l1.3-11.5zm-26.1 22.5l24.8-32.2h10.7l-1.7 32.2H125l.5-4.3H115l-3 4.3h-10.3m63.9-14.7l2.6-7.3 4.2-10.3h10.1L169.2 68h-9.9L155 50.5l-2.6 7.3-4.2 10.2h-10.1l13.3-32.2h9.9l4.3 17.6m8.4 14.7l13.3-32.2h26.3l-3.1 7.5h-15.7l-1.9 4.6h13.3l-3.1 7.5h-13.3l-2.1 5.1H204l-3.1 7.5H174m56.5-22.9c.3-1.1 0-1.8-.6-2.2-.6-.4-1.5-.6-2.5-.6-2.3 0-3.6.7-4.1 1.8-2 4.8 17.8 1.8 12.9 13.6-3.1 7.5-10.8 11.1-19.7 11.1-8.5 0-12-5-9.8-10.8h10.1c-.2 1.2 0 2 .7 2.6.6.5 1.6.8 2.7.8 2.6 0 4.7-.8 5.4-2.4 2-4.9-17.9-1.5-12.8-13.8C215.6 38.4 223 35 231 35c8.9 0 11.1 4.6 9.6 10.2h-10.1m5.5 22.9l13.3-32.2h10.6l-13.3 32.2H236" fill="#8c8f96"/></svg>