<svg version="1.1" id="icons" xmlns="http://www.w3.org/2000/svg" x="0" y="0" viewBox="0 0 116 116" xml:space="preserve" width="85" height="81"><style>.st0{fill:#fff}</style><path class="st0" d="M57.9 88.7c-29.1 0-52.1-27.9-53.2-29.1-.5-.7-.5-1.5 0-2.2 1-1 24.1-28.9 53.2-28.9s52.1 27.9 53.2 29.1c.5.7.5 1.5 0 2.2-1 1.2-24.1 28.9-53.2 28.9zM8.3 58.6c4.5 5 25.2 26.7 49.6 26.7s45.1-21.7 49.6-26.7c-4.7-5-25.2-26.7-49.6-26.7S12.8 53.6 8.3 58.6z"/><path class="st0" d="M57.9 88.7c-16.5 0-30.1-13.5-30.1-30.1s13.5-30.1 30.1-30.1S88 42.1 88 58.6 74.5 88.7 57.9 88.7zm0-56.8c-14.7 0-26.7 12-26.7 26.7s12 26.7 26.7 26.7 26.7-12 26.7-26.7-11.9-26.7-26.7-26.7z"/><path class="st0" d="M57.9 82C45 82 34.5 71.5 34.5 58.6S45 35.2 57.9 35.2s23.4 10.5 23.4 23.4S70.8 82 57.9 82zm0-43.4c-11 0-20.1 9-20.1 20.1s9 20.1 20.1 20.1S78 69.7 78 58.6s-9-20-20.1-20z"/><path class="st0" d="M46.3 46.9h3.3v3.3h-3.3zM57.9 72c-7.4 0-13.4-6-13.4-13.4v-3.3h1.7c4.7 0 8.4-3.7 8.4-8.4v-1.7h3.3c7.4 0 13.4 6 13.4 13.4H68c0-5.5-4.5-10-10-10h-.2c-.7 5.2-4.8 9.2-9.9 10 0 5.5 4.5 10 10 10V72z"/><path class="st0" d="M64.6 72a6.7 6.7 0 110-13.4 6.7 6.7 0 010 13.4zm0-10c-1.8 0-3.3 1.5-3.3 3.3 0 1.8 1.5 3.3 3.3 3.3 1.8 0 3.3-1.5 3.3-3.3.1-1.8-1.4-3.3-3.3-3.3zM36.7 28l-9.5-9.5H4.5v-3.3h24l10.6 10.5zM4.5 8.5h3.3v3.3H4.5zm6.7 0h3.3v3.3h-3.3zm6.6 0h3.3v3.3h-3.3zm93.6 93.6h-24L76.8 91.5l2.4-2.3 9.5 9.5h22.7zm-3.3 3.3h3.3v3.3h-3.3zm-6.7 0h3.3v3.3h-3.3zm-6.7 0H98v3.3h-3.3zm16.7-60.1h-3.3V8.5H64.6v16.7h-3.3V5.1h50.1z"/><path class="st0" d="M96.4 35.2v-3.3c2.8 0 5-2.2 5-5s-2.2-5-5-5-5 2.2-5 5H88c0-4.7 3.7-8.4 8.4-8.4s8.4 3.7 8.4 8.4-3.9 8.3-8.4 8.3zM81.3 18.5h3.3v3.3h-3.3zm-6.6 0H78v3.3h-3.3zm-6.7 0h3.3v3.3H68zm0-6.7h36.8v3.3H68zm-23.4 90.3H4.5V92h20v3.4H7.8v3.3h36.8z"/><path class="st0" d="M44.6 108.8H4.5v-8.4h3.3v5h36.8zM11.2 88.7a6.7 6.7 0 116.7-6.7c0 3.7-3.1 6.7-6.7 6.7zm0-10c-1.8 0-3.3 1.5-3.3 3.3s1.5 3.3 3.3 3.3 3.3-1.5 3.3-3.3-1.5-3.3-3.3-3.3zM27.9 92h3.3v3.3h-3.3zm20 13.4h3.3v3.3h-3.3zm0-6.7h3.3v3.3h-3.3z"/></svg>