<svg version="1.1" id="Layer_1" xmlns="http://www.w3.org/2000/svg" x="0" y="0" viewBox="0 0 116 151" xml:space="preserve" width="77" height="94"><style>.st0{fill:#002856}</style><path class="st0" d="M67.7 59.6c-8.8 0-15.9 7.2-15.9 15.9 0 8.8 7.2 15.9 15.9 15.9 8.8 0 15.9-7.2 15.9-15.9s-7.1-15.9-15.9-15.9zm0 26.5c-5.8 0-10.6-4.8-10.6-10.6s4.8-10.6 10.6-10.6 10.6 4.8 10.6 10.6-4.8 10.6-10.6 10.6z"/><path class="st0" d="M108.8 64.1h-5c-.7-2.1-1.5-4.2-2.6-6.2l3.5-3.5c.5-.5.8-1.2.8-1.9s-.3-1.4-.8-1.9L92.5 38.3c-1-1-2.7-1-3.8 0l-3.5 3.5c-2-1-4-1.9-6.2-2.6v-5c0-1.5-1.2-2.7-2.7-2.7H58.9c-1.5 0-2.7 1.2-2.7 2.7v5c-2.4.8-4.8 1.8-7 3-1.4-3.8-3.6-7.3-6.6-10.4L39 28.2l9.6-9.6c1-1 1-2.7 0-3.8-1-1-2.7-1-3.8 0l-24 24.3c-7.1 7.1-7.1 18.6 0 25.7l3.6 3.6-3.4 3.3-3.6-3.6c-1.9-1.9-3.5-4.2-4.6-6.6-.6-1.3-2.2-1.9-3.5-1.3-1.3.6-1.9 2.2-1.3 3.5 1.4 3 3.3 5.8 5.7 8.2l3.6 3.6-3.6 3.6c-11 11-11 29 0 40l3.6 3.6-9.6 9.6c-1 1-1 2.7 0 3.8.5.5 1.2.8 1.9.8s1.4-.3 1.9-.8L35.6 112c7.1-7.1 7.1-18.6 0-25.7L32 82.6l3.4-3.4 3.6 3.6c8.9 8.9 8.9 23.5 0 32.4l-24.1 24.1c-1 1-1 2.7 0 3.8.5.5 1.2.8 1.9.8s1.4-.3 1.9-.8l9.6-9.6 9.6 9.6c.5.5 1.2.8 1.9.8s1.4-.3 1.9-.8c1-1 1-2.7 0-3.8l-9.6-9.6 3.4-3.4 9.6 9.6c.5.5 1.2.8 1.9.8s1.4-.3 1.9-.8c1-1 1-2.7 0-3.8l-9.6-9.6 3.6-3.6c3-3 5.2-6.6 6.6-10.4 2.2 1.2 4.6 2.2 7 3v5c0 1.5 1.2 2.7 2.7 2.7h17.4c1.5 0 2.7-1.2 2.7-2.7v-5c2.1-.7 4.2-1.5 6.2-2.6l3.5 3.5c.5.5 1.2.8 1.9.8s1.4-.3 1.9-.8l12.3-12.3c.5-.5.8-1.2.8-1.9s-.3-1.4-.8-1.9l-3.5-3.5c1-2 1.9-4 2.6-6.2h5c1.5 0 2.7-1.2 2.7-2.7V66.8c-.4-1.5-1.6-2.7-3.1-2.7zM28.2 39.3l3.6 3.6.3.3h-7.7l.3-.3 3.5-3.6zm-6.9 9.2H35c.5 1.7.6 3.5.3 5.2H21c-.2-1.7-.1-3.5.3-5.2zM24.6 61c-.6-.6-1.1-1.2-1.6-1.9h10.3c-.5.7-1 1.3-1.6 1.9l-3.6 3.6-3.5-3.6zm-7.1 54.3c-8.9-8.9-8.9-23.5 0-32.4l5.4-5.4 12.6-12.6c7.1-7.1 7.1-18.6 0-25.7L32 35.5l3.4-3.4 3.6 3.6c8.9 8.9 8.9 23.5 0 32.4L20.8 86.2c-7.1 7.1-7.1 18.6 0 25.7l3.6 3.6-3.4 3.4-3.5-3.6zM35.2 102h-14c-.4-1.7-.4-3.5-.1-5.2h14.2c.3 1.7.3 3.5-.1 5.2zm-7 9.7l-3.6-3.6c-.3-.3-.5-.5-.7-.8h8.6c-.2.3-.5.5-.7.8l-3.6 3.6zM31.7 90c.5.5.9.9 1.2 1.4h-9.6c.4-.5.8-1 1.2-1.4l3.6-3.6 3.6 3.6zm74.4-8.5h-4.3c-1.2 0-2.3.8-2.6 2-.8 3-2 5.9-3.6 8.6-.6 1.1-.5 2.4.4 3.3l3 3-8.5 8.5-3-3c-.9-.9-2.2-1-3.3-.4-2.7 1.6-5.6 2.8-8.6 3.6-1.2.3-2 1.4-2 2.6v4.3h-12v-4.3c0-1.2-.8-2.3-2-2.6-3-.8-5.9-2-8.6-3.6-.1-.1-.3-.1-.4-.2 1.3-8.6-1.3-17.7-7.9-24.3l-3.6-3.6 3.6-3.6c6.6-6.6 9.2-15.7 7.9-24.3.1-.1.3-.1.4-.2 2.7-1.6 5.6-2.8 8.6-3.6 1.2-.3 2-1.4 2-2.6V37h12.1v4.3c0 1.2.8 2.3 2 2.6 3 .8 5.9 2 8.6 3.6 1.1.6 2.4.5 3.3-.4l3-3 8.5 8.5-3 3c-.9.9-1 2.2-.4 3.3 1.6 2.7 2.8 5.6 3.6 8.6.3 1.2 1.4 2 2.6 2h4.3l-.1 12zm-98-26.9c1.5 0 2.7-1.2 2.7-2.7 0-1.5-1.2-2.7-2.7-2.7-1.5 0-2.7 1.2-2.7 2.7 0 1.5 1.2 2.7 2.7 2.7zm9.2-26.2L13.7 32c-2.4 2.4-4.3 5.2-5.7 8.2-.6 1.3 0 2.9 1.3 3.5.4.2.7.3 1.1.3 1 0 2-.6 2.4-1.6 1.1-2.5 2.7-4.7 4.6-6.7l24.1-24.1c1-1 1-2.7 0-3.8-1-1-2.7-1-3.8 0l-9.6 9.6-9.6-9.6c-1-1-2.7-1-3.8 0-1 1-1 2.7 0 3.8l9.6 9.6-3.3 3.4-9.5-9.6c-1-1-2.7-1-3.8 0-1 1-1 2.7 0 3.8l9.6 9.6z"/><path class="st0" d="M67.6 54.3h.3c1.4-.1 2.4-1.3 2.4-2.7 0-1.5-1.2-2.7-2.7-2.7-.5 0-.9.1-1.3.3-.9.4-1.4 1.3-1.4 2.4.1 1.5 1.3 2.7 2.7 2.7zm11.8-2.6c-1.3-.7-2.9-.1-3.6 1.2-.7 1.3-.1 2.9 1.2 3.6 7.3 3.6 11.9 10.9 11.9 19.1 0 1.5 1.2 2.7 2.7 2.7 1.5 0 2.7-1.2 2.7-2.7 0-5.1-1.4-10-4.1-14.2-2.7-4.3-6.4-7.6-10.8-9.7z"/></svg>