<svg version="1.1" id="Layer_1" xmlns="http://www.w3.org/2000/svg" x="0" y="0" viewBox="0 0 52 52" xml:space="preserve"><style>.st1{fill:#2e2e2e}</style><circle cx="25.7" cy="26.3" r="24.4" fill="#fff"/><g id="Page-1"><g id="_x30_03---Call" transform="translate(-1)"><path id="Shape" class="st1" d="M24.1 28.8c-2.6-2.6-3.3-5.3-3.4-6.4 0-.3.1-.6.3-.8l2.2-2.2c.4-.4.4-.8.1-1.2l-3.4-5.3c-.3-.5-.8-.5-1.3-.4L13 15.2c-.4.2-.5.5-.5 1 .3 2.7 1.4 9.5 8.1 16.1s13.4 7.8 16.1 8.1c.4 0 .8-.2 1-.5l2.6-5.5c.2-.5.1-1-.4-1.3l-5.3-3.4c-.4-.3-.9-.2-1.2.1L31.2 32c-.2.2-.5.3-.8.3-1.1-.3-3.7-.9-6.3-3.5z"/><path id="Shape_1_" class="st1" d="M34.6 27.3c-.5 0-1-.5-1-1 0-4-3.3-7.2-7.2-7.2-.5 0-1-.5-1-1s.5-1 1-1c5.1 0 9.1 4.1 9.1 9.1.1.7-.4 1.1-.9 1.1z"/><path id="Shape_2_" class="st1" d="M39.4 27.3c-.5 0-1-.5-1-1 0-6.6-5.4-12-12-12-.5 0-1-.5-1-1s.5-1 1-1c7.7 0 13.9 6.2 13.9 13.9 0 .3-.1.5-.3.6-.2.2-.4.5-.6.5z"/></g></g></svg>