<svg xmlns="http://www.w3.org/2000/svg" viewBox="0 0 42 42"><path d="M26.5 27c.5 0 .8-.4.8-.8s-.4-.8-.8-.8h-.8v-1c0-.5-.4-.8-.8-.8h-4.8c-.5 0-.8.4-.8.8v.2h-.7l-1.5-4.4 3.2-4.1c.2-.2.2-.5.1-.8L15.6.6c-.1-.2-.2-.4-.4-.5-.2-.1-.4-.1-.6-.1l-12 3.9c-.2.1-.4.2-.5.4-.1.2-.1.4 0 .6l4.8 14.8c.1.3.3.5.6.5l5 1.4 1 2.9h-2.6c-.8 0-1.6.4-2.1.9H6c-.5 0-.8.4-.8.8 0 .5.4.8.8.8h1.9L3.3 40.9c-.1.2 0 .5.1.7.2.3.4.4.7.4 3.7 0 7-2.4 8.1-5.9l1.6-4.9c.2-.6.7-1 1.3-1.2.2 2.2 1.2 4.3 2.8 5.9l.5.5c.2.2.4.2.6.2.2 0 .4-.1.6-.2.3-.3.3-.8 0-1.2l-.5-.5c-1.3-1.3-2.1-3-2.3-4.8h2.5v.2c0 .5.4.8.8.8h4.8c.5 0 .8-.4.8-.8v-1h.8c.5 0 .8-.4.8-.8 0-.5-.4-.8-.8-.8h-.8V27h.8zM14.3 1.8l.4 1.2L4.3 6.4l-.4-1.2 10.4-3.4zm-6 17L4.8 7.9l10.4-3.4 3.5 10.9-3.1 3.9-2.6.9-4.7-1.4zm5.8 2.8l1.5-.5 1.2 3.5h-1.7l-1-3zm-3.4 14c-.8 2.5-2.9 4.2-5.4 4.7L8.6 30h4c-.1.2-.2.5-.3.7l-1.6 4.9zm-1.5-7.2l.4-1.3c.2-.5.6-.8 1.2-.8h8.5v2.2H9.2zm14.9 1H21v-4.2h3.1v4.2zm15.5 4.2l-9.2-6.3 9.2-6.3c.4-.3.5-.8.2-1.1-.3-.4-.8-.5-1.1-.2l-10.2 6.9c-.2.2-.4.4-.4.7 0 .3.1.5.4.7l10.2 6.9c.1.1.3.1.5.1.3 0 .5-.1.7-.4.2-.3.1-.8-.3-1z" fill="#0d3770"/></svg>