<svg version="1.1" id="Layer_1" xmlns="http://www.w3.org/2000/svg" x="0" y="0" viewBox="0 0 42 42" xml:space="preserve"><style>.st0{fill:#0d3770}</style><path class="st0" d="M1.6 4.7l2.7 4.7c.1.2.2.3.4.3l2.5.6 8.6 8.6 1-1-8.7-8.6c-.1-.1-.2-.2-.3-.2l-2.5-.6-2.3-4 2-2 4 2.3.6 2.4c0 .1.1.2.2.3l8.8 8.8 1-1L11 6.7l-.6-2.5c0-.2-.2-.3-.3-.4L5.2 1.1c-.2-.2-.6-.1-.8.1L1.7 3.9c-.2.2-.2.5-.1.8zm28 9.6L14.8 29.1l-1-1 14.8-14.8 1 1zM12.2 29.6c-.1-.2-.3-.3-.6-.3h-4c-.2 0-.5.1-.6.3L5 33c-.1.2-.1.5 0 .7l2 3.4c.1.2.3.3.6.3h4c.2 0 .5-.1.6-.3l2-3.4c.1-.2.1-.5 0-.7l-2-3.4zm-.9 6.5H8l-1.6-2.7L8 30.7h3.3l1.6 2.7-1.6 2.7z"/><path class="st0" d="M33.9 17.2c4.5 0 8.1-3.6 8.1-8 0-.7-.1-1.4-.2-2-.1-.4-.5-.6-.8-.5-.1 0-.2.1-.3.2L36.4 11l-3.3-1.1L32 6.6l4.2-4.2c.3-.3.3-.7 0-1-.1-.1-.2-.1-.3-.2C31.6.1 27.2 2.7 26.1 7c-.2.7-.2 1.3-.2 2 0 .5.1 1.1.2 1.6L11.2 25.4c-.5-.1-1-.2-1.6-.2-4.5 0-8.1 3.6-8.1 8.1s3.6 8.1 8.1 8.1 8.1-3.6 8.1-8.1c0-.5-.1-1.1-.2-1.6l3.5-3.5 1.5 1.5c.3.3.7.3 1 0l.3-.3c.3-.3.8-.3 1.1 0 .3.3.3.8 0 1.1l-.3.3c-.3.3-.3.7 0 1l8 8c2.1 2.1 5.6 2.2 7.7 0 2.1-2.1 2.2-5.6 0-7.7l-8-8c-.3-.3-.7-.3-1 0l-.3.3c-.3.3-.8.3-1.1 0-.3-.3-.3-.8 0-1.1l.3-.3c.3-.3.3-.7 0-1l-1.5-1.5 3.5-3.5c.6.1 1.2.2 1.7.2zm2.6 22.9c-.5 0-1-.1-1.4-.3l5.3-5.3c.8 2.1-.3 4.5-2.4 5.3-.5.2-1 .3-1.5.3zm-7.6-17.5c-.7.9-.6 2.2.3 3 .8.7 1.9.7 2.7 0l7.6 7.6c.1.1.2.2.2.3l-5.8 5.8c-.1-.1-.2-.2-.3-.2L26 31.5c.7-.9.6-2.2-.3-3-.8-.7-1.9-.7-2.7 0l-1-1.2 5.8-5.8 1.1 1.1zm2.7-6.8L16.3 31.1c-.2.2-.2.4-.2.6.9 3.6-1.3 7.3-4.9 8.3-3.6.9-7.3-1.3-8.3-4.9-.9-3.6 1.3-7.3 4.9-8.3 1.1-.3 2.3-.3 3.3 0 .2.1.5 0 .6-.2L27 11.3c.2-.2.2-.4.2-.6-.9-3.6 1.2-7.2 4.8-8.2.7-.2 1.4-.2 2.1-.2l-3.6 3.6c-.2.2-.2.4-.2.7l1.3 4c.1.2.2.4.4.4l4 1.3c.2.1.5 0 .7-.2l3.6-3.6v.4c0 3.7-3 6.7-6.7 6.7-.6 0-1.1-.1-1.7-.2.1.2-.1.2-.3.4z"/><path class="st0" d="M36.4 34.9l-1 1-6.7-6.7 1-1 6.7 6.7z"/></svg>