<svg version="1.1" id="Capa_1" xmlns="http://www.w3.org/2000/svg" x="0" y="0" viewBox="0 0 42 42" xml:space="preserve"><style>.st0{fill:#0d3770}</style><path class="st0" d="M37.2 17.1l-13-13c-1.9-1.9-4.4-2.9-7-2.9h-10c-1.8 0-3.3 1.5-3.3 3.3v35.6c0 .4.3.7.7.7H24c1.7 0 3.2-.9 4.1-2.4 1.8-3.3 4.5-6 7.8-7.8 1.5-.8 2.4-2.4 2.4-4.1v-7.1c-.1-.8-.5-1.7-1.1-2.3zm-.4 9.5c0 1.2-.7 2.3-1.7 2.9-3.5 1.9-6.4 4.8-8.3 8.3-.6 1.1-1.7 1.7-2.9 1.7H5.2v-35c0-1.1.9-2 2-2h10c2.3 0 4.5.9 6.1 2.5l13 13c.4.4.6.9.6 1.4v7.2z"/><path class="st0" d="M34 17.9L22.1 6c-1.4-1.4-3.2-2.1-5.1-2.1H8.5c-1.1 0-2 .9-2 2v12.5c0 .4.3.7.7.7h26.4c.3 0 .5-.2.6-.4.1-.3 0-.6-.2-.8zm-10.4-.2H7.8V5.8c0-.4.3-.7.7-.7H17c1.6 0 3.1.6 4.2 1.7l2.5 2.5v8.4zm1.4 0v-7l7 7h-7zm7.2 3.3h-4c-1.1 0-2 .9-2 2s.9 2 2 2h4c1.1 0 2-.9 2-2s-.9-2-2-2zm0 2.6h-4c-.4 0-.7-.3-.7-.7 0-.4.3-.7.7-.7h4c.4 0 .7.3.7.7 0 .4-.3.7-.7.7z"/></svg>