<svg version="1.1" id="Layer_1" xmlns="http://www.w3.org/2000/svg" x="0" y="0" viewBox="0 0 52 52" xml:space="preserve"><style>.st1{fill:#2e2e2e}</style><circle cx="26" cy="26.3" r="24.4" fill="#fff"/><path class="st1" d="M26 10.7c-8.6 0-15.6 7-15.6 15.6S17.4 42 26 42s15.6-7 15.6-15.6-7-15.7-15.6-15.7zm0 27.9c-6.8 0-12.3-5.5-12.3-12.3S19.2 14 26 14s12.3 5.5 12.3 12.3S32.8 38.6 26 38.6z"/><path class="st1" d="M34.2 25.8h-7v-8.5c0-.7-.6-1.3-1.3-1.3-.7 0-1.3.6-1.3 1.3V27c0 .7.6 1.3 1.3 1.3h8.3c.7 0 1.3-.6 1.3-1.3 0-.6-.6-1.2-1.3-1.2z"/></svg>