<svg version="1.1" id="Ñëîé_1" xmlns="http://www.w3.org/2000/svg" x="0" y="0" viewBox="0 0 129 129" xml:space="preserve"><style>.st0{fill:#fff}</style><path class="st0" d="M60 118.1c-27.7 0-50.2-22.5-50.2-50.2S32.4 17.7 60 17.7c2.5 0 5 .2 7.5.5l-.4 2.8c-2.3-.4-4.7-.5-7.1-.5-26.2 0-47.4 21.3-47.4 47.4s21.3 47.4 47.4 47.4 47.4-21.3 47.4-47.4c0-2.6-.2-5.2-.6-7.7l2.7-.4c.4 2.7.7 5.4.7 8.1 0 27.7-22.5 50.2-50.2 50.2z"/><path class="st0" d="M60 81.4c-7.4 0-13.5-6.1-13.5-13.5S52.6 54.4 60 54.4s13.5 6.1 13.5 13.5c.1 7.5-6 13.5-13.5 13.5zm0-24.3c-5.9 0-10.8 4.8-10.8 10.8 0 5.9 4.8 10.8 10.8 10.8s10.8-4.8 10.8-10.8C70.8 62 66 57.1 60 57.1z"/><path class="st0" d="M60 89.9c-12.1 0-22-9.9-22-22s9.9-22 22-22 22 9.9 22 22-9.8 22-22 22zm0-41.3c-10.6 0-19.3 8.7-19.3 19.3 0 10.6 8.7 19.3 19.3 19.3 10.6 0 19.3-8.7 19.3-19.3S70.7 48.6 60 48.6z"/><path class="st0" d="M31.1 107.9l-1.3-2.4c14.7-8 18.7-20 18.8-20.1l2.6.8c-.2.6-4.4 13.2-20.1 21.7zM41.7 59c-.5-.2-13.1-4.3-21.7-20l2.4-1.3c8.1 14.8 20 18.7 20.1 18.8l-.8 2.5zm29.8-8.6l-2.6-.8c.1-.3 2.3-6.9 9.4-13.9l1.9 2c-6.6 6.3-8.7 12.6-8.7 12.7zm26.2 47.7c-8.1-14.8-20-18.7-20.1-18.8l.8-2.6c.5.2 13.1 4.3 21.7 20l-2.4 1.4zM31 97.7c-3.9 0-7-3.1-7-7s3.1-7 7-7 7 3.1 7 7c-.1 3.8-3.2 7-7 7zm0-11.3c-2.4 0-4.3 1.9-4.3 4.3S28.6 95 31 95s4.3-1.9 4.3-4.3c-.1-2.4-2-4.3-4.3-4.3zm-8.5-23.9c-2.6 0-4.8-2.1-4.8-4.8 0-2.6 2.1-4.8 4.8-4.8 2.6 0 4.8 2.1 4.8 4.8s-2.1 4.8-4.8 4.8zm0-6.8c-1.1 0-2.1.9-2.1 2.1 0 1.1.9 2.1 2.1 2.1 1.1 0 2.1-.9 2.1-2.1 0-1.2-.9-2.1-2.1-2.1zm47.7-20.5c-2.6 0-4.8-2.1-4.8-4.8 0-2.1 1.4-4 3.5-4.6l.7 2.6c-.9.2-1.5 1.1-1.5 2 0 1.1.9 2.1 2.1 2.1.9 0 1.8-.7 2-1.6l2.7.6c-.5 2.2-2.4 3.7-4.7 3.7zm27.3 47.7c-2.6 0-4.8-2.1-4.8-4.8 0-2.7 2.1-4.8 4.8-4.8 2.6 0 4.8 2.1 4.8 4.8.1 2.6-2.1 4.8-4.8 4.8zm0-6.9c-1.1 0-2.1.9-2.1 2.1 0 1.1.9 2.1 2.1 2.1 1.1 0 2.1-.9 2.1-2.1 0-1.2-.9-2.1-2.1-2.1zm-47.6 34.2c-2.6 0-4.8-2.1-4.8-4.8 0-2.7 2.1-4.8 4.8-4.8 2.6 0 4.8 2.1 4.8 4.8 0 2.7-2.2 4.8-4.8 4.8zm0-6.8c-1.1 0-2.1.9-2.1 2.1 0 1.2.9 2.1 2.1 2.1 1.1 0 2.1-.9 2.1-2.1 0-1.2-1-2.1-2.1-2.1zM37.3 45.8c-3.9 0-7-3.1-7-7s3.1-7 7-7 7 3.1 7 7c-.1 3.9-3.2 7-7 7zm0-11.2c-2.4 0-4.3 1.9-4.3 4.3s1.9 4.3 4.3 4.3 4.3-1.9 4.3-4.3-2-4.3-4.3-4.3zm51.8 17.5c-1.9 0-3.6-.7-4.9-2-1.3-1.3-2-3.1-2-4.9s.7-3.6 2-4.9l1.9 1.9c-.8.8-1.2 1.9-1.2 3s.4 2.2 1.2 3 1.9 1.2 3 1.2 2.2-.4 3-1.2l1.9 1.9c-1.3 1.3-3 2-4.9 2zM82.8 104c-3.9 0-7-3.1-7-7s3.1-7 7-7 7 3.1 7 7-3.1 7-7 7zm0-11.3c-2.4 0-4.3 1.9-4.3 4.3s1.9 4.3 4.3 4.3 4.3-1.9 4.3-4.3-1.9-4.3-4.3-4.3z"/><path class="st0" d="M106 62.2c-2 0-3.9-.7-5.4-2.1L68 27.4c-2.7-2.7-2.9-7.2-.5-10.1.1-.1 2.7-3.3 7.6-5.4C79.6 10 87 8.6 96.7 13c.7.3 1.8 1 2.4 1.7L113.4 29c.6.6 1.3 1.6 1.7 2.4 4.3 9.7 3 17.1 1.1 21.7-2.1 4.9-5.3 7.5-5.4 7.6-1.5.9-3.2 1.5-4.8 1.5zM84.2 12.8c-2.8 0-5.5.5-8 1.6-4.3 1.8-6.7 4.6-6.7 4.6-1.5 1.8-1.3 4.8.4 6.5l32.6 32.6c1.7 1.7 4.6 1.8 6.5.4 0 0 2.8-2.3 4.6-6.7 2.4-5.8 2.1-12.3-1.1-19.4-.2-.4-.7-1.2-1.1-1.5L97.1 16.5c-.4-.4-1.1-.9-1.5-1.1-4-1.7-7.8-2.6-11.4-2.6z"/></svg>