<svg version="1.1" id="Ñëîé_1" xmlns="http://www.w3.org/2000/svg" x="0" y="0" viewBox="0 0 129 129" xml:space="preserve"><style>.st0{fill:#fff}</style><path class="st0" d="M62.9 33.5zm33.8 44.6c-.6 0-1.2-.2-1.8-.7L64 53.6c-1.4-1.1-2.5-3.2-2.5-5V36c0-1.2.5-2.1 1.3-2.5.8-.4 1.9-.2 2.8.5l31 23.8c1.4 1.1 2.5 3.2 2.5 5v12.6c0 1.2-.5 2.1-1.3 2.5-.4.1-.8.2-1.1.2zM64.2 36.3l.1 12.4c0 .9.7 2.3 1.4 2.9L96.3 75V62.7c0-.9-.7-2.3-1.4-2.9L64.2 36.3z"/><path class="st0" d="M103.6 120.2H27.7c-2.5 0-4.5-2-4.5-4.5V23.4c0-2.1 1.8-3.9 3.9-3.9h18.3c2.1 0 3.9 1.8 3.9 3.9v1.9c1.5-1.4 4.1-2.4 6.1-2.4h7.2c2 0 4.8 1 6.4 2.2l36.1 27.7c1.7 1.3 3 4 3 6.1v56.8c0 2.4-2 4.5-4.5 4.5zm-76.5-98c-.7 0-1.2.5-1.2 1.2v92.3c0 1 .8 1.8 1.8 1.8h75.9c1 0 1.8-.8 1.8-1.8V58.9c0-1.3-.9-3.1-2-3.9L67.3 27.2c-1.1-.9-3.4-1.6-4.8-1.6h-7.2c-1.4 0-3.4.8-4.4 1.8l-8 8-1.9-1.9 5.5-5.5v-4.6c0-.7-.5-1.2-1.2-1.2H27.1z"/><path class="st0" d="M42.5 22.2H30c-2.1 0-3.9-1.8-3.9-3.9v-5.6c0-2.1 1.8-3.9 3.9-3.9h12.5c2.1 0 3.9 1.8 3.9 3.9v5.5c.1 2.3-1.7 4-3.9 4zM30 11.6c-.7 0-1.2.5-1.2 1.2v5.5c0 .7.5 1.2 1.2 1.2h12.5c.7 0 1.2-.5 1.2-1.2v-5.5c0-.7-.5-1.2-1.2-1.2H30zm69 97.8H33.7V59.3h23.8L99 91.2v18.2zm-62.6-2.7h59.9V92.5L56.6 62H36.4v44.7z"/><path class="st0" d="M56.7 101.9c-5.7 0-10.3-4.6-10.3-10.3 0-6.9 8.9-17.6 9.3-18.1l1-1.2 1 1.2c.4.5 9.3 11.2 9.3 18.1 0 5.7-4.6 10.3-10.3 10.3zm0-25.3c-2.8 3.6-7.6 10.7-7.6 15 0 4.2 3.4 7.6 7.6 7.6s7.6-3.4 7.6-7.6c0-4.3-4.8-11.4-7.6-15z"/></svg>