<svg version="1.1" id="Ñëîé_1" xmlns="http://www.w3.org/2000/svg" x="0" y="0" viewBox="0 0 129 129" xml:space="preserve"><style>.st0{fill:#fff}</style><path class="st0" d="M63.5 118.4c-30.3 0-54.9-24.6-54.9-54.9S33.2 8.6 63.5 8.6s54.9 24.6 54.9 54.9-24.6 54.9-54.9 54.9zm0-107c-28.8 0-52.1 23.4-52.1 52.1s23.4 52.1 52.1 52.1 52.1-23.4 52.1-52.1-23.4-52.1-52.1-52.1z"/><path class="st0" d="M63.5 106.8c-23.9 0-43.3-19.4-43.3-43.3s19.4-43.3 43.3-43.3 43.3 19.4 43.3 43.3-19.4 43.3-43.3 43.3zm0-83.8C41.1 23 23 41.1 23 63.5S41.1 104 63.5 104 104 85.9 104 63.5 85.9 23 63.5 23z"/><path class="st0" d="M100.3 45.3c-36.3-8.6-73.2-.1-73.6 0l-.6-2.7c.1 0 9.5-2.2 23.4-3.3 12.8-1 32.1-1.2 51.4 3.3l-.6 2.7zm-47.9 58.3l-2.7-.4c1.9-12.9-2.2-23-12.2-30.1-7.5-5.3-15.7-6.9-15.8-6.9l.5-2.7c.4.1 8.9 1.7 16.9 7.4 7.4 5.3 15.8 15.3 13.3 32.7zm22.2 0C72 86.2 80.4 76.2 87.9 70.9c8-5.7 16.5-7.3 16.9-7.4l.5 2.7c-.1 0-8.3 1.6-15.9 6.9-9.9 7.1-14 17.2-12.1 30l-2.7.5zM63.5 69c-6.1 0-11-5-11-11s5-11 11-11 11 5 11 11-4.9 11-11 11zm0-19.3c-4.6 0-8.3 3.7-8.3 8.3s3.7 8.3 8.3 8.3 8.3-3.7 8.3-8.3-3.7-8.3-8.3-8.3zm-32.7 1.4h3.8v2.8h-3.8zm0 6h3.8v2.8h-3.8zm61.5-6h3.8v2.8h-3.8zm0 6h3.8v2.8h-3.8zM80 20c-1.5-.6-3.2-1.1-4.8-1.5l.7-2.7c1.7.4 3.4 1 5.1 1.6L80 20zm9 4.6c-1.4-.9-3-1.8-4.5-2.6l1.2-2.5c1.6.8 3.2 1.8 4.8 2.8L89 24.6zm14.5 15.2c-2.7-4.5-6.1-8.6-10.2-12l1.8-2.1c4.3 3.6 7.9 7.9 10.8 12.7l-2.4 1.4z"/></svg>