<svg version="1.1" id="Ñëîé_1" xmlns="http://www.w3.org/2000/svg" x="0" y="0" viewBox="0 0 129 129" xml:space="preserve"><style>.st0{fill:#fff}</style><path class="st0" d="M104.5 51.9L54.6 21.1c-3.2-2.2-7-3.4-11.1-3.4-9.1 0-16.8 6.2-19.1 14.7v.1c0 .1-.1.3-.1.5l-14 58c-.5 1.4-.7 2.9-.7 4.4 0 7.6 6.2 13.9 13.9 13.9h64.4c17.2 0 31.1-14 31.1-31.1 0-11.1-5.8-20.8-14.5-26.3zm-33.2 0L17.9 82.7c-1.1.5-2.1 1.1-3 1.8l9.9-41.1c.8 2.4 2 4.7 3.6 6.6l12.4 16.8 2.5-1.4-7.1-9.6c2.3.9 4.8 1.4 7.4 1.4 4 0 7.7-1.2 10.9-3.3l-3.1 6.9 4.3-2.5 4.9-10.6c1.8-3 2.9-6.5 2.9-10.3 0-3.2-.8-6.3-2.2-9l30.4 18.8c-1.2-.1-2.4-.2-3.7-.2-6.2.1-11.9 1.8-16.7 4.9zM43.5 20.6c9.3 0 16.9 7.6 16.9 16.9s-7.6 16.9-16.9 16.9-16.9-7.6-16.9-16.9c0-1.3.1-2.6.4-3.8l.1-.5c2-7.3 8.6-12.6 16.4-12.6zm-31 74.8c0-6 4.9-11 11-11s11 4.9 11 11-4.9 11-11 11-11-4.9-11-11zm19.4 11c2.3-1.8 4-4.2 4.8-7l9.6-21.1-2-2.7L36.8 92c-1.4-5.4-5.9-9.6-11.5-10.4l37-21.4c-3.6 5.1-5.6 11.2-5.6 17.9 0 2.1.2 4.2.6 6.3l-8.6-11.5-1.1-1.5-1.9 1.1-.6.3.3.3 2 2.7L62 95.5c3.2 4.7 7.5 8.4 12.7 10.8l-42.8.1zm56 0c-15.6 0-28.2-12.7-28.2-28.2S72.4 50 87.9 50s28.2 12.7 28.2 28.2-12.7 28.2-28.2 28.2z"/><path class="st0" d="M87.9 54.3C74.8 54.3 64 65 64 78.2 64 91.3 74.7 102 87.9 102c13.1 0 23.9-10.7 23.9-23.9-.1-13.1-10.8-23.8-23.9-23.8zm0 44.8c-11.6 0-21-9.4-21-21s9.4-21 21-21 21 9.4 21 21-9.5 21-21 21z"/><path class="st0" d="M87.9 76.3c-1 0-1.8.8-1.8 1.8s.8 1.8 1.8 1.8 1.8-.8 1.8-1.8-.8-1.8-1.8-1.8zM43.5 39.2c1 0 1.8-.8 1.8-1.8s-.8-1.8-1.8-1.8-1.8.8-1.8 1.8.8 1.8 1.8 1.8z"/><path class="st0" d="M87.9 70.3c-4.3 0-7.8 3.5-7.8 7.9 0 4.3 3.5 7.8 7.8 7.8s7.9-3.5 7.9-7.8c-.1-4.4-3.6-7.9-7.9-7.9zm0 12.8c-2.7 0-5-2.2-5-5s2.2-5 5-5c2.7 0 5 2.2 5 5-.1 2.8-2.3 5-5 5zM23.5 88c-4.1 0-7.5 3.3-7.5 7.5s3.3 7.5 7.5 7.5 7.5-3.3 7.5-7.5c-.1-4.2-3.4-7.5-7.5-7.5zm0 12c-2.5 0-4.6-2-4.6-4.6 0-2.5 2-4.6 4.6-4.6s4.6 2 4.6 4.6C28 98 26 100 23.5 100zm20-50.4c6.7 0 12.1-5.4 12.1-12.1 0-6.7-5.4-12.1-12.1-12.1s-12.1 5.4-12.1 12.1c0 6.6 5.4 12.1 12.1 12.1zm0-21.4c5.1 0 9.2 4.1 9.2 9.2s-4.1 9.2-9.2 9.2-9.2-4.1-9.2-9.2c0-5 4.1-9.2 9.2-9.2z"/></svg>