<svg version="1.1" id="Ñëîé_1" xmlns="http://www.w3.org/2000/svg" x="0" y="0" viewBox="0 0 129 129" xml:space="preserve"><style>.st0{fill:#fff}</style><path class="st0" d="M46.9 116.8H18.2c-4.7 0-8.5-3.8-8.5-8.5V28.9c0-4.7 3.8-8.5 8.5-8.5h28.7c4.7 0 8.5 3.8 8.5 8.5v79.4c0 4.7-3.8 8.5-8.5 8.5zM18.2 23.2c-3.2 0-5.7 2.6-5.7 5.7v79.4c0 3.2 2.6 5.7 5.7 5.7h28.7c3.2 0 5.7-2.6 5.7-5.7V28.9c0-3.2-2.6-5.7-5.7-5.7H18.2z"/><path class="st0" d="M33.9 21.8h2.8v93.7h-2.8zm-5.4 0h2.8v93.7h-2.8zm15.7 4.8L37.4 23l1.3-2.4 5.5 2.8 5-2.3 1.2 2.5z"/><path class="st0" d="M44.2 34.5l-9.5-4.9 1.3-2.5 8.2 4.3 9.3-4.3 1.2 2.5zm0 8l-9.5-5L36 35l8.2 4.4 9.3-4.4 1.2 2.5zm0 7.9l-9.5-4.9L36 43l8.2 4.3 9.3-4.3 1.2 2.5zm0 8l-9.5-5L36 51l8.2 4.3 9.3-4.4 1.2 2.5zm0 7.9l-9.5-4.9 1.3-2.5 8.2 4.3 9.3-4.3 1.2 2.5zm0 8l-9.5-5 1.3-2.4 8.2 4.3 9.3-4.3 1.2 2.5zm0 8l-9.5-5 1.3-2.5 8.2 4.3 9.3-4.3 1.2 2.5zm0 7.9l-9.5-4.9 1.3-2.5 8.2 4.3 9.3-4.3 1.2 2.5zm0 8l-9.5-5 1.3-2.5 8.2 4.4 9.3-4.4 1.2 2.5zm0 7.9l-9.5-4.9 1.3-2.5 8.2 4.3 9.3-4.3 1.2 2.5zm0 8l-9.5-5 1.3-2.4 8.2 4.3 9.3-4.4 1.2 2.6zM20 26.6l-5.5-2.9 1.3-2.4 4.2 2.1 6.2-2.9 1.2 2.6zm0 7.9l-9.5-4.9 1.3-2.5 8.2 4.3 9.3-4.3 1.2 2.5zm0 8l-9.5-5 1.3-2.5 8.2 4.4 9.3-4.4 1.2 2.5zm0 7.9l-9.5-4.9 1.3-2.5 8.2 4.3 9.3-4.3 1.2 2.5zm0 8l-9.5-5 1.3-2.4 8.2 4.3 9.3-4.4 1.2 2.5zm0 7.9l-9.5-4.9 1.3-2.5 8.2 4.3 9.3-4.3 1.2 2.5zm0 8l-9.5-5 1.3-2.4 8.2 4.3 9.3-4.3 1.2 2.5zm0 8l-9.5-5 1.3-2.5 8.2 4.3 9.3-4.3 1.2 2.5zm0 7.9l-9.5-4.9 1.3-2.5 8.2 4.3 9.3-4.3 1.2 2.5zm0 8l-9.5-5 1.3-2.5 8.2 4.4 9.3-4.4 1.2 2.5zm0 7.9l-9.5-4.9 1.3-2.5L20 103l9.3-4.3 1.2 2.5zm0 8l-9.5-5 1.3-2.4L20 111l9.3-4.4 1.2 2.6z"/><path class="st0" d="M62.3 92.1h-9.6V45.2h9.6v46.9zm-6.9-2.8h4.1V47.9h-4.1v41.4z"/><path class="st0" d="M78.9 73.8H59.5V63.4h19.4v10.4zm-16.6-2.7h13.8v-4.9H62.3v4.9z"/><path class="st0" d="M117.6 77.5H78.7c-1.4 0-2.5-1.1-2.5-2.5V62.2c0-1.4 1.1-2.5 2.5-2.5h38.9c1.4 0 2.5 1.1 2.5 2.5V75c0 1.4-1.1 2.5-2.5 2.5zm-38.7-2.7h38.4V62.5H78.9v12.3z"/><path class="st0" d="M103.7 62.5H92.6V15.2h11.1v47.3zm-8.4-2.8h5.6V17.9h-5.6v41.8z"/><path transform="rotate(-17.609 98.125 53.16)" class="st0" d="M89.3 51.8h17.6v2.8H89.3z"/><path transform="rotate(-17.609 98.13 46.21)" class="st0" d="M89.3 44.8h17.6v2.8H89.3z"/><path transform="rotate(-17.609 98.127 39.234)" class="st0" d="M89.3 37.8h17.6v2.8H89.3z"/><path transform="rotate(-17.609 98.124 32.257)" class="st0" d="M89.3 30.9h17.6v2.8H89.3z"/><path transform="rotate(-17.609 98.13 25.308)" class="st0" d="M89.3 23.9h17.6v2.8H89.3z"/><path class="st0" d="M85.8 61.1h2.8v9.3h-2.8zm22.7 5.7h2.8v9.3h-2.8z"/></svg>