<svg version="1.1" id="Layer_1" xmlns="http://www.w3.org/2000/svg" x="0" y="0" viewBox="0 0 209 43" xml:space="preserve"><style>.st0{fill:#7f7f7f}</style><path class="st0" d="M52.4 30h3.1V18.9L57.9 30h2.7l2.2-11.1V30h3.1V15.5h-4.8l-1.7 9.7h-.3l-1.6-9.7h-5.1zM77 15.5h-3.4v10.6c0 1.2-.5 1.9-1.4 1.9s-1.4-.7-1.4-1.9V15.5h-3.4v9.7c0 2.9.7 5.1 4.8 5.1s4.8-2.2 4.8-5.1v-9.7zM80.9 30h3.4V18.4h2.9v-2.9h-9.5v2.9h3.2zm16.4-14.5h-3.4v10.6c0 1.2-.5 1.9-1.4 1.9s-1.5-.6-1.5-1.8V15.5h-3.4v9.7c0 2.9.7 5.1 4.8 5.1s4.8-2.2 4.8-5.1v-9.7h.1zm.2 14.5h3.6l.5-2.7h3.4l.5 2.7h3.6l-3.6-14.5h-4.3L97.5 30zm7-5.3h-2.4l1.2-6.5 1.2 6.5zm5.6 5.3h1.2V16.8h.2l3.7 13.2h1.2l3.8-13.2V30h1.3V15.5h-2.2l-3.4 13.1-3.6-13.1h-2.2zm12.3 0h1.4l1.2-4.3h5.1l1.2 4.3h1.4l-4.3-14.5h-1.7L122.4 30zm2.7-5.3l2.2-8.2 2.2 8.2h-4.4zm9.4-7.9h2.2c2.9 0 4.1 1.4 4.1 6.3s-1.2 6-4.1 6h-2.2V16.8zM133.3 30h3.4c4.1 0 5.3-2.4 5.3-7.2s-1-7.2-5.3-7.2h-3.4V30zm11.8-13.2h2.4c2.4 0 3.1 1 3.1 2.9s-1.2 2.9-3.1 2.9h-2.2v-5.8h-.2zM143.7 30h1.2v-6.5h2.4c2.4 0 2.9.7 2.9 3.4v1.2c0 .7 0 1.4.5 1.9h1.4c-.5-.5-.5-1.4-.7-2.2v-1.7c0-2.2-.7-3.4-2.4-3.4 1.9-.5 2.7-1.9 2.7-3.6 0-2.2-1.4-3.6-3.9-3.6h-4.3l.2 14.5zm9.9 0h1.2V15.5h-1.2zm3.4 0h7.2v-.9h-6V15.5H157zm8.2 0h7.2v-.9h-6V23h5.5v-.9h-5.5v-5.3h5.8v-1.3h-7zm14.7-17.6c0 .2-.2 1-.7 1-.2 0-.5 0-.7-.2l-.5-.2c-.5-.2-.7-.5-1.2-.5-1 0-1.4 1.2-1.4 1.9h1c0-.5.2-1 .7-1 .2 0 .2 0 .5.2l.7.5c.2.2.7.2 1 .2 1 0 1.4-1.2 1.4-1.9h-.8zM173.6 30h1.2V17.5l5.6 12.6h1.7V15.5h-1.2v12.6l-5.6-12.6h-1.7V30zm9.4 0h1.4l1.2-4.3h5.1L192 30h1.4l-4.3-14.5h-1.7L183 30zm2.9-5.3l2.2-8.2 2.2 8.2h-4.4zm10.4-2.6c2.7-.5 4.6-1.9 4.6-4.8 0-1.4-1-2.9-2.4-2.9s-2.4 1-2.4 2.4c0 1 .7 1.7 1.7 1.7.2 0 .7 0 1-.2-.2 1.4-1.2 1.9-2.4 2.2v1.6h-.1zm6.1 0c2.7-.5 4.6-1.9 4.6-4.8 0-1.4-1-2.9-2.4-2.9s-2.4 1-2.4 2.4c0 1 .7 1.7 1.7 1.7.2 0 .7 0 1-.2-.2 1.4-1.2 1.9-2.4 2.2v1.6h-.1z"/><path d="M43 31v3.9H19.8v-3.6m0-16.5c1-5.6 5.8-9.7 11.4-9.7 5.8 0 10.4 4.1 11.4 9.7" fill="none" stroke="#7f7f7f" stroke-width="1.5" stroke-miterlimit="10"/><path d="M41.8 27.6v-6.8c-.7 2.4-1.4 4.8-2.4 7h1.9c.5.1.5.1.5-.2zm-8.5.3H35l-2.2-6.5v6.3c0 .2.3.2.5.2zm-4.3-.3v-6.8c-.7 2.4-1.4 4.8-2.2 7h1.9c0 .1.3.1.3-.2z" fill="#fff"/><path class="st0" d="M11.8 22.1c-2.7-.5-4.6-1.9-4.6-4.8 0-1.4 1-2.9 2.4-2.9s2.4 1 2.4 2.4c0 1-.7 1.7-1.7 1.7-.2 0-.7 0-1-.2.2 1.4 1.2 1.9 2.4 2.2l.1 1.6zm-5.8 0c-2.7-.5-4.6-1.9-4.6-4.8 0-1.4 1-2.9 2.4-2.9s2.4 1 2.4 2.4c0 1-.7 1.7-1.7 1.7-.2 0-.7 0-1-.2.2 1.4 1.2 1.9 2.4 2.2v1.6H6z"/><path d="M19.3 17.7v9.9c0 .5.5.7 1 .7h1.4V30h-6.8v-1.7h1.2c.7 0 1-.2 1-.7v-9.9c0-.5-.2-.7-1-.7h-1.4v-1.7h6.8l2.9 9.4 3.4-9.4h6.8l2.9 9.4 3.4-9.4h6.5V17H46c-.5 0-1 .2-1 .7v9.4c0 .7.2 1 1 1h1.4v1.7h-7.2v-1.7h1.4c.5 0 1-.2 1-.7v-9.9l-4.1 12.3h-1.9l-4.1-12.3v9.7c0 .7.2 1 1 1h1.4v1.7h-7.5v-1.7h1.4c.5 0 1-.2 1-.7v-9.9l-4.1 12.3h-1.9l-4.5-12.2z" fill="gray"/></svg>