<svg xmlns="http://www.w3.org/2000/svg" viewBox="0 0 132 43"><path d="M107.3 17h-1.1v4h1.1c1.2 0 2.2-1 2.2-2.2s-1.1-1.8-2.2-1.8zm7 8.4v3.4h-4.9v-3.2c0-1.3-1-2.3-2.2-2.3h-1.1v5.6h-5V15.5h9.8c1.8 0 3.4 1.5 3.4 3.4s-1.5 3.4-3.4 3.4c1.8-.1 3.3 1.4 3.4 3.1zm-99-15c-6.7 0-12.1 5.4-12.1 12.1s5.4 12.1 12.1 12.1c6.7 0 12.1-5.4 12.1-12.1S22 10.4 15.3 10.4zm0-1.3c7.4 0 13.4 6 13.4 13.4s-6 13.4-13.4 13.4-13.4-6-13.4-13.4 6-13.4 13.4-13.4zm2.8 8.5c-.9-.3-1.8-.5-2.8-.5s-1.9.1-2.7.4c-.4.1-.5.4-.5.8 0 .1.1.4.1.4l2.7 4.7c.1.1.2.2.4.2s.3-.1.4-.2l2.7-4.7c.1-.1.1-.3.1-.5.1-.2-.2-.5-.4-.6zM10 19.1c-.6.5-1.1 1.1-1.5 1.8-.4.7-.7 1.4-.8 2.1 0 .3.1.6.3.7.1.1.3.1.4.1h4.5c.1 0 .2-.1.3-.1.1-.1.1-.2 0-.4L11 19.4c-.1-.1-.1-.2-.3-.3-.2-.1-.5-.1-.7 0zm10.6 0c-.2-.1-.5-.2-.7-.1-.1.1-.2.1-.3.3l-2.2 3.9c-.1.1-.1.2 0 .4.1.1.2.1.3.1h4.5c.1 0 .3 0 .4-.1.2-.1.4-.4.4-.7-.1-.8-.4-1.5-.8-2.2-.6-.5-1-1.1-1.6-1.6zm-4.7 6v4.1h-1.3v-4.1H8.5c-.4 0-.7-.1-1.1-.3-.6-.4-1-1.1-1-1.8v-.3c.1-.9.4-1.8 1-2.6.4-.8 1-1.5 1.8-2 .4-.4 1.1-.5 1.7-.4.1-.6.6-1 1.1-1.3.1-.1.2-.1.3-.1 1-.4 2-.6 3.1-.6s2.2.2 3.1.6c.6.2 1.1.7 1.3 1.4.6-.1 1.2 0 1.6.4.7.6 1.4 1.3 1.8 2.1.4.8.8 1.7 1 2.6v.3c0 .7-.3 1.4-1 1.8-.4.2-.7.3-1.1.3h-4.4c-.3-.1-1.1-.1-1.8-.1zm24.4-9.6l3.3 6.7 3.3-6.7h5v13.4h-5v-6.7l-3.3 6.7-3.3-6.7v6.7h-5V15.5h5zm13.1 13.4l3.9-13.4H66l3.9 13.4h-5l-.7-2.2h-5.3l-.7 2.2h-4.8zm8.2-11.4l-2 6.9h4l-2-6.9zm19-2c2.1 0 3.9 1.8 3.9 3.9s-1.8 3.9-3.9 3.9h-4.3v5.6h-5V15.5h9.3zM77.5 17h-1.1v4h1.1c1.2 0 2.2-1 2.2-2.2S78.6 17 77.5 17zm8.8-1.5h13.2v2.2h-8.2v3.4h8.2v2.2h-8.2v5.6h-5V15.5zm34.8 11.2h8.2v2.2h-13.2V15.5h13.2v2.2h-8.2v3.4h8.2v2.2h-8.2v3.4z" fill="#7f7f7f"/></svg>