<svg xmlns="http://www.w3.org/2000/svg" viewBox="0 0 54 54"><circle cx="26.7" cy="27.3" r="26" fill="#002856"/><path d="M38.9 39.6c2.2 0 4-1.8 4-4V18.9c0-2.2-1.8-4-4-4H14.5c-2.2 0-4 1.8-4 4v16.7c0 2.2 1.8 4 4 4h24.4zM14.6 20.5c-.4-.4-.5-1-.1-1.4s1-.5 1.4-.1l10.8 9.2L37.5 19c.4-.4 1.1-.3 1.4.1.4.4.3 1.1-.1 1.4L31.1 27l7.8 7.3c.4.4.4 1 0 1.4-.2.2-.5.3-.7.3-.2 0-.5-.1-.7-.3l-7.9-7.4-2.2 1.9c-.2.2-.4.2-.6.2s-.5-.1-.6-.2L24 28.3l-8 7.5c-.2.2-.4.3-.7.3-.3 0-.5-.1-.7-.3-.4-.4-.4-1 0-1.4l7.8-7.3-7.8-6.6z" fill="#e6e6e6"/></svg>