<svg version="1.1" id="Layer_1" xmlns="http://www.w3.org/2000/svg" x="0" y="0" viewBox="0 0 43 43" xml:space="preserve"><style>.st1{fill:#fff}</style><circle cx="21.5" cy="21.5" r="21.5" fill="#002856"/><path class="st1" d="M4.7 21.5c0 9.3 7.5 16.8 16.8 16.8s16.8-7.5 16.8-16.8S30.8 4.7 21.5 4.7 4.7 12.2 4.7 21.5zm31.9 0c0 8.3-6.8 15.1-15.1 15.1S6.4 29.8 6.4 21.5 13.2 6.4 21.5 6.4s15.1 6.8 15.1 15.1z"/><path class="st1" d="M20.9 13.6l-4.7 4.7c-.3.3-.3.9 0 1.2.3.3.9.3 1.2 0l3.3-3.3v12.6c0 .5.4.8.8.8s.8-.4.8-.8V16.2l3.3 3.3c.3.3.9.3 1.2 0 .3-.3.3-.9 0-1.2l-4.7-4.7c-.2-.2-.4-.2-.6-.2s-.4 0-.6.2z"/></svg>