<svg version="1.1" id="Layer_1" xmlns="http://www.w3.org/2000/svg" x="0" y="0" viewBox="0 0 54 54" xml:space="preserve"><style>.st1{fill:#e6e6e6}</style><circle cx="27" cy="27" r="26" fill="#002856"/><g id="Page-1"><g id="_x30_03---Call" transform="translate(-1)"><path id="Shape" class="st1" d="M24.6 30.4c-2.9-2.9-3.6-5.9-3.8-7.1 0-.3.1-.7.3-.9l2.4-2.4c.4-.4.4-.9.1-1.3l-3.8-5.9c-.3-.5-.9-.6-1.4-.4l-6.1 2.9c-.4.2-.6.6-.6 1.1.3 3 1.6 10.5 9 17.8s14.8 8.6 17.8 9c.4 0 .9-.2 1.1-.6l2.9-6.1c.2-.5.1-1.1-.4-1.4l-5.9-3.8c-.4-.3-1-.2-1.3.1l-2.4 2.4c-.2.2-.6.3-.9.3-1.2-.1-4.1-.8-7-3.7z"/><path id="Shape_1_" class="st1" d="M36.2 28.8c-.6 0-1.1-.5-1.1-1.1 0-4.4-3.6-8-8-8-.6 0-1.1-.5-1.1-1.1s.5-1.1 1.1-1.1c5.6 0 10.1 4.5 10.1 10.1.1.7-.4 1.2-1 1.2z"/><path id="Shape_2_" class="st1" d="M41.5 28.8c-.6 0-1.1-.5-1.1-1.1 0-7.3-6-13.3-13.3-13.3-.6 0-1.1-.5-1.1-1.1s.5-1.1 1.1-1.1c8.5 0 15.4 6.9 15.4 15.4 0 .3-.1.6-.3.7s-.4.5-.7.5z"/></g></g></svg>