<svg version="1.1" id="Layer_1" xmlns="http://www.w3.org/2000/svg" x="0" y="0" viewBox="0 0 116 104" xml:space="preserve"><style>.st1{fill:#af0000}.st2{fill:#fff}.st3{fill:#0204ae}.st5{fill-rule:evenodd;clip-rule:evenodd;fill:#af0000}</style><circle class="st1" cx="57.6" cy="50.3" r="47.4"/><circle class="st2" cx="57.6" cy="50.3" r="45.6"/><circle class="st3" cx="57.5" cy="50.3" r="44.3"/><path d="M34.5 30.3l-4.7-5.8-2.1 1.8-.6-.8 5.1-4.2.7.8-2.2 1.7 4.7 5.8zm2-1.8l-1.2-8.9 1.1-.6 7.1 5.7-1.1.6-2.1-1.7-3.1 1.7.4 2.7-1.1.5zm.5-4.2l2.5-1.4-1.9-1.6c-.6-.5-1-.9-1.4-1.2.2.5.3 1.1.4 1.6l.4 2.6zm6.6.4l-2.7-7.9 1-.4 2.4 7 3.9-1.3.4.9zm5.7-1.9l-1.6-8.3 1.1-.2 1.4 7.3 4-.8.2 1zm5.7-1.1l.1-8.4 6.1.1v1l-5-.1v2.6l4.6.1v1l-4.6-.1-.1 2.9h5.2v1zm6.9.2l2-8.2 3.6.9c.7.2 1.2.4 1.6.6.3.2.6.6.7 1 .1.4.1.9 0 1.3-.1.6-.5 1-.9 1.3-.5.3-1.1.4-1.9.3.3.2.4.4.6.6.2.4.4.8.6 1.3l.8 2.6-1.3-.3-.7-2c-.2-.6-.3-1-.5-1.3-.1-.3-.3-.5-.4-.7s-.3-.3-.4-.3c-.1-.1-.3-.1-.6-.2l-1.2-.3-.9 3.7-1.1-.3zm2.2-4.3l2.3.6c.5.1.9.2 1.2.1.3 0 .6-.1.8-.3.2-.2.3-.4.4-.7.1-.4 0-.7-.2-1-.2-.3-.6-.6-1.2-.7l-2.6-.6-.7 2.6zm5.2 6.3l3.7-7.6 5.5 2.7-.5.9-4.4-2.2-1.1 2.3 4.1 2.1-.4.8-4.2-2-1.2 2.6 4.6 2.3-.4.8zm7.7.8l.9.6c-.2.4-.3.7-.3 1 0 .3.1.7.3 1 .2.4.5.7.9 1 .3.3.7.4 1 .5s.6.1.9 0c.3-.1.5-.2.6-.4.1-.2.2-.4.2-.7 0-.3-.1-.5-.3-.8-.1-.2-.4-.6-1-1.2-.5-.6-.8-1.1-1-1.4-.2-.4-.3-.8-.2-1.2 0-.4.2-.7.4-1 .3-.3.6-.6 1-.7.4-.1.9-.2 1.3 0 .5.1 1 .3 1.4.7.5.4.9.8 1.1 1.2s.4.9.3 1.4c0 .5-.2.9-.5 1.3l-.9-.6c.3-.5.3-.9.3-1.3-.1-.4-.4-.8-.9-1.2-.5-.4-1-.6-1.4-.6-.4 0-.7.1-.9.4-.2.2-.2.5-.2.8.1.3.4.8 1 1.5s1 1.2 1.2 1.5c.3.5.4.9.3 1.3 0 .4-.2.8-.4 1.2-.3.3-.6.6-1.1.8-.4.2-.9.2-1.4.1-.5-.1-1-.3-1.5-.7-.6-.5-1-.9-1.3-1.4-.3-.5-.4-1-.3-1.5 0-.7.2-1.2.5-1.6z" fill-rule="evenodd" clip-rule="evenodd" fill="#fff"/><path class="st2" d="M79.5 43.5s.1.6.1 1.1c0 .5-.1 6.3.2 6 .4-.3.4-4.6.4-4.6s0-.2 1-.7c1-.5 3.5-.6 4-.2.4.3.1 2.8.1 2.8s.5-.2.6-.7c.1-.5-.1-2.1-.1-2.1l-2.2-3.2-2.5.1-1.6 1.5zm-1-4.4L73.2 34l-.1.4s3 4.5 3.5 5.7c.6 1.2 1.3 1.9 1.3 1.9s.3-.2.4-.7c.1-.2.2-2.2.2-2.2zm-39.8 4.3l3.1-.3s3.4-4.9 3.9-5.7l-1-1c-2.5 2.2-4.5 4.5-6 7zm5.8 9.4l-.2-.4s-.5-.4-1.3-.4-.7-.4-1-.7c-.3-.3-1-.1-1-.1s-.7.4-2 .5-.2.2-.2.2h1.3s1.1 0 1.7.6c.6.6.4 1 .6 1.3.2.2.2 0 .7-.4.5-.4.9.2.9.2l.1 2.1 15.1-1.1.1-2.2-.7-.3-14.1.7zm-2.4-9.1c-.5.1-.7.7.3.7 1-.1 24-1.9 24-1.9l.3-.6s-4.5.4-7 .6c-2.5.2-17.1 1.1-17.6 1.2zm1.9 18v-.3c-.1-.9-.8-.5-2.5-.4-1.6.1-1.8-.2-1.6.9l4.1-.2zm28.2-1c0-.2.1-.3.1-.3l-.4-1.7-20.6 1s.1.7.1 1.7l20.8-.7zM29.7 52v-1.7c0-1.7.1-2.8 1.6-3.9 1.5-1.2 3.9-1.8 5.1-1.7 1.2.1 2.8.8 2.6 2.6-.2 1.7-3.6 1.3-4.5 1.3-.8-.1-.8-.6-.7-1.6.1-1-.6-.4-.6-.4s-.4 2.3.5 2.6c.9.4 3.7.2 4.7-.2s1.5-.8 1.9-2.7c.4-1.9-1.8-2.1-1.8-2.1-3.8-.4-6.9 1.2-6.9 1.2s-.8-.8-.1-2.2c.7-1.4 4-1.1 4.4-1.1.3 0 1.2 1.3 1.2 1.3l.5.2.6-.8c1.9-3.5 6.2-6.9 6.2-6.9 2.4-1.2 27.6-2.7 28.6-2.5 1.1.2 5.5 5.3 5.5 5.3s1.3-.3 2.4-.5c1.2-.2 2.1.3 2.6.6s.5 2.5.5 2.5.8 1.2 1.8 2 .6 2.8.6 2.8-.2 4.6-.4 8.1c-.2-.2-.3-.5-.3-.9 0-.9-.2-4.8-.2-4.8s-.4-.2-.3.5c.1.7-.1.8-.1.8s-.1 1.5-.9 1.8c-.8.4-.8 1.9-.8 1.9l-.4.7.2 2.2.3-.6-.1-1.3.7-1.7s.4-.3.4.1-.3 3.7-.4 4.5c-.1.8 0 1 .6 1 .3 0 .2.9.1 1.6-.5.5-.9.7-.9.7s-3.8.3-5.4.3h-.2c.3-.5.6-1.3.6-1.9 0-1 .1-1.4.1-1.4l1.3-.2-.1-.4-1.2.2v-1.9c.5 0 1.4.1 2 .1 1 0 1.4-.1 1.4-.5s-.8 0-.8 0l-2.6-.2.1-3.3-.1-3.1s-.4-1-.9-1.2c-.6-.2.2-3 .2-3s.1-.7-.6-1.4-1.8-1.4-2.3-1.4-3.4 4-3.4 4-.4.8-.8.7c-.4-.1 2.1-3.1 2.1-3.1l1-1.2s-2.4.2-3.9.3c-1.2.1-3.3.7-4.2.9-.6.7-1.7 2.5-1 3.2 0 0 1.4.2 3.2.1 0 0 1.2.1-.3.2s-3.2.2-3.5-.4c-.3-.4.3-1.7.6-2.5-.8.6-1.8 1.4-2 1.9-.3.7-1.9 4-2.4 4.2-.4.1-.6.2-.4-.6.2-.8 2.2-3.9 2.4-4.1s.8-1.2.4-1.5c-.4-.4-11.9 1.3-12.3 1.5-.4.1-5.3.3-5.3.3s-1.3 1.5-1.2 2.9c.2 1.4.9 3.8.9 3.8l13.6-1s-.2.6.6.6c.7 0 1.4-.7 1.8.2s.9.8 1 2c.1 1.2.3 2.2.3 2.2l-19.2 1.3s-.4.3.2.6c.6.2 31.2-2.1 31.2-2.1s.6.6.1.6-31.2 2.3-31.2 2.3-.8.4.1.5c.9.1 31.5-2.2 31.5-2.2s1.2-.4 1.2-1.3.9-3.3 1-5.1c.1-1.8.3-2.6.3-2.6s.9.1.8 1.3c-.1 1.2-.1 8.7-.1 8.7s-.1 3.1-.8 3.4c-5.7.2-38.8 1.5-38.8 1.5-2.7 0-4.5.1-4.6.1-.6-.1-.7-.3-.8-1.6-.2-1.4-3.2-4.1-3.8-9.4zm47-8.4s.8-.3.9.7c.1 1-.5 6.4-.6 7.2-.1.8-1.1 2.8-1.7 3.1-.6.3-1.3.6-1.9.7-.6.1-4 .2-4 .2l-.1-.6s-.1-.2-1.1-.1c-.9.1-4.2.2-4.2.2l-.2-1.9 1.3-.4 1.3-.4 4.1.1.2-.6-5.4.1s.2-.7.8-.8c.6-.1 6.1-.6 6.1-.6s1 0 1-.7.2-1.5.2-1.5l1.1-.2s.3-1.1.6-1.3c.3-.2 1.2-.2 1.3-.7.1-.5.2-1.7.2-1.7l.1-.8zm-13.1 6.9s0-.5.2-1c.2-.6 8.4-1 8.4-1l.1.4s-1.2.1-1.8.3c-.7.2-.7.8-.7.8l-6.2.5z"/><path class="st3" d="M4.5 66.8c0-1.2 1-2.2 2.2-2.2H109c1.2 0 2.2 1 2.2 2.2v24.1c0 1.2-1 2.2-2.2 2.2H6.7c-1.2 0-2.2-1-2.2-2.2V66.8z"/><path class="st2" d="M6.4 66.5h103v24.9H6.4z"/><path class="st1" d="M6.3 87.1h103.3v2.3H6.3z"/><path class="st5" d="M14.1 79.9h-3l-.5 1.6c-.1.4-.2.7-.2.9 0 .1.1.3.2.4.1.1.3.2.7.2v.3H8.8V83c.3-.1.5-.2.6-.3.2-.2.4-.7.6-1.4l2.7-8.2h.3l2.7 8.3c.2.7.4 1.1.6 1.3.2.2.4.3.8.3v.3H14V83c.3 0 .5-.1.6-.2.1-.1.2-.3.2-.4 0-.2-.1-.6-.2-1l-.5-1.5zm-.1-.5l-1.3-4-1.3 4H14zm.4-9.6l-1.7 2.5h-.2l.6-2.5h1.3zm4.6 7.9c.6-.9 1.2-1.4 1.8-1.4.3 0 .5.1.7.3.2.2.4.5.5.9.1.3.1.8.1 1.4v2.9c0 .4 0 .7.1.9 0 .1.1.2.2.3h.6v.3h-2.6V83h.1c.2 0 .4-.1.5-.1.1-.1.2-.2.2-.4V79c0-.6-.1-1.1-.2-1.3-.1-.3-.3-.4-.6-.4-.5 0-.9.3-1.4 1v3.6c0 .5 0 .7.1.8.1.1.1.2.2.3.1.1.3.1.6.1v.3h-2.6V83h.1c.3 0 .4-.1.6-.3.1-.2.1-.5.1-1v-4c0-.2-.1-.3-.1-.3-.1-.1-.1-.1-.2-.1s-.2 0-.4.1l-.1-.3 1.6-.8h.3l-.2 1.4zm5.7 3.1c-.3-.2-.6-.5-.7-.8-.2-.3-.3-.8-.3-1.2 0-.7.2-1.2.6-1.7.4-.5.9-.7 1.5-.7.5 0 .9.1 1.3.5h1.4s.1 0 .1.1v.5s0 .1-.1.1h-1c.2.3.3.8.3 1.4 0 .6-.2 1.2-.6 1.6-.4.4-.9.7-1.5.7-.3 0-.5-.1-.8-.1-.2.2-.3.3-.3.5s-.1.3-.1.3c0 .1 0 .2.1.2.1.1.2.1.4.2.1 0 .4 0 .8.1.8 0 1.3.1 1.5.1.3.1.6.2.8.5s.3.6.3 1c0 .6-.2 1.1-.6 1.6-.6.7-1.4 1.1-2.3 1.1-.7 0-1.4-.2-1.9-.6-.3-.2-.4-.5-.4-.8 0-.1 0-.2.1-.3l.4-.8c0-.1.2-.3.6-.8-.2-.1-.3-.3-.4-.4-.1-.1-.1-.3-.1-.4 0-.2.1-.4.2-.6 0-.6.3-.9.7-1.3zm1-4.1c-.3 0-.5.1-.7.4-.2.3-.3.7-.3 1.3 0 .8.1 1.4.4 1.8.2.3.5.5.8.5s.5-.1.7-.4c.2-.3.3-.7.3-1.3 0-.8-.1-1.4-.4-1.8-.3-.4-.5-.5-.8-.5zm-1.1 6.6c-.2.3-.3.5-.4.7-.1.2-.1.4-.1.6 0 .2.1.4.3.6.4.3.9.5 1.7.5.7 0 1.2-.1 1.5-.5s.5-.6.5-1c0-.3-.1-.4-.3-.6-.2-.1-.6-.2-1.2-.2-.9 0-1.5-.1-2-.1zm5.3-4.2c0 1 .2 1.8.6 2.4.4.6.8.8 1.3.8.3 0 .6-.1.9-.3.3-.2.5-.7.6-1.2l.2.1c-.1.7-.3 1.3-.7 1.8-.4.6-.9.8-1.5.8s-1.2-.3-1.6-.9c-.4-.6-.7-1.5-.7-2.5 0-1.2.2-2 .7-2.7.5-.6 1-1 1.7-1 .6 0 1.1.3 1.5.8.4.5.6 1.2.6 2l-3.6-.1zm0-.5h2.4c0-.4-.1-.7-.1-.9-.1-.3-.2-.5-.4-.6s-.4-.2-.6-.2c-.3 0-.6.1-.8.5-.3.2-.4.7-.5 1.2zm6-5.8v8.9c0 .4 0 .7.1.8.1.1.1.2.2.3.1.1.3.1.6.1v.3h-2.6V83c.2 0 .4 0 .5-.1.1-.1.1-.2.2-.3.1-.1.1-.4.1-.8v-7.5c0-.2-.1-.3-.1-.3-.1-.1-.1-.1-.2-.1s-.2 0-.4.1l-.1-.3 1.6-.8.1-.1zm10.6 7.7l.2.1-.7 2.7h-6V83h.3c.3 0 .6-.1.7-.4.1-.1.1-.5.1-1.1V75c0-.6-.1-1-.2-1.2-.1-.2-.4-.3-.7-.3h-.3v-.3h3.5v.3c-.4 0-.7 0-.9.1-.2.1-.3.2-.3.4-.1.1-.1.5-.1 1.1v6.3c0 .4 0 .7.1.8.1.1.1.2.2.2.1.1.4.1.9.1h.6c.6 0 1-.1 1.2-.2.2-.1.5-.3.7-.6.3-.1.5-.6.7-1.2zm5.3-4V82c0 .2.1.3.1.3.1.1.1.1.2.1s.3 0 .4-.1l.1.3-1.6.8h-.3V82c-.5.6-.8 1-1 1.2-.2.2-.5.2-.8.2-.3 0-.6-.1-.8-.3-.2-.2-.4-.5-.5-.8-.1-.3-.1-.8-.1-1.5v-3c0-.3 0-.6-.1-.7-.1-.1-.1-.2-.2-.3-.1-.1-.3-.1-.6-.1v-.3h1.9V81c0 .6.1 1 .3 1.2.2.2.4.3.6.3.2 0 .3-.1.6-.2s.5-.4.8-.8v-3.8c0-.4-.1-.6-.2-.8-.1-.1-.3-.2-.7-.2v-.3l1.9.1zm2.5-3.7c.2 0 .3.1.4.2s.2.3.2.5-.1.4-.2.5c-.1.1-.3.2-.4.2-.2 0-.3-.1-.4-.2-.1-.1-.2-.3-.2-.5s.1-.4.2-.5c.1-.1.2-.2.4-.2zm.5 3.5v5.4c0 .4 0 .7.1.8.1.1.1.2.2.3.1.1.3.1.5.1v.3H53V83c.3 0 .4 0 .5-.1.1-.1.1-.2.2-.3.1-.1.1-.4.1-.8v-2.6c0-.7 0-1.2-.1-1.4 0-.1-.1-.3-.1-.3-.1-.1-.1-.1-.2-.1s-.2 0-.4.1l-.1-.3 1.6-.8.3-.1zm4.7 0v2.3h-.2c-.1-.7-.3-1.2-.6-1.5-.2-.3-.5-.4-.9-.4-.3 0-.5.1-.6.3-.2.2-.2.4-.2.6 0 .3.1.5.2.7.1.2.3.4.7.6l.8.5c.8.5 1.2 1.1 1.2 1.9 0 .6-.2 1.1-.6 1.5-.3.4-.8.6-1.2.6-.3 0-.7-.1-1.1-.2-.1-.1-.2-.1-.3-.1-.1 0-.1.1-.2.2h-.2V81h.2c.1.7.3 1.2.6 1.6.3.3.6.5 1 .5.3 0 .5-.1.6-.3.2-.2.3-.4.3-.7 0-.3-.1-.6-.3-.8-.2-.2-.6-.5-1.1-.9-.6-.3-.9-.7-1.1-1-.2-.3-.3-.6-.3-1 0-.6.1-1 .4-1.4.3-.4.7-.6 1.2-.6.2 0 .5.1.8.2.2.1.3.1.4.1.1 0 .1 0 .1-.1 0 0 .1-.1.1-.2l.3-.1zm6 1.6h3.6V75c0-.5 0-.8-.1-1 0-.1-.1-.2-.2-.3-.2-.1-.3-.2-.5-.2H68v-.3h3.4v.3H71c-.2 0-.3.1-.5.2l-.3.3c-.1.1-.1.5-.1 1v6.5c0 .5 0 .8.1 1 0 .1.1.2.2.3.2.1.3.2.5.2h.3v.3H68V83h.3c.3 0 .6-.1.7-.3.1-.1.1-.5.1-1.1v-3.1h-3.6v3.1c0 .5 0 .8.1 1 0 .1.1.2.2.3.2.1.3.2.5.2h.3v.3h-3.3V83h.3c.3 0 .6-.1.7-.3.1-.1.1-.5.1-1.1V75c0-.5 0-.8-.1-1 0-.1-.1-.2-.2-.3-.2-.1-.3-.2-.5-.2h-.3v-.3h3.3v.3h-.3c-.2 0-.3.1-.5.2-.1.1-.2.2-.2.3-.1.1-.1.5-.1 1v2.9zm10.9-1.4V82c0 .2.1.3.1.3s.1.1.2.1.3 0 .4-.1l.1.3-1.6.8h-.3V82c-.5.6-.8 1-1 1.2-.2.2-.5.2-.8.2-.3 0-.6-.1-.8-.3-.2-.2-.4-.5-.5-.8-.1-.3-.1-.8-.1-1.5v-3c0-.3 0-.6-.1-.7.2-.1.1-.1 0-.2s-.3-.1-.6-.1v-.3h1.9V81c0 .6.1 1 .3 1.2.2.2.4.3.6.3.2 0 .3-.1.6-.2.2-.1.5-.4.8-.8v-3.8c0-.4-.1-.6-.2-.8-.1-.1-.3-.2-.7-.2v-.3l1.7.1zm2.8 1.3c.4-.5.6-.8.7-.8.2-.2.3-.3.6-.4.2-.1.4-.1.6-.1.3 0 .6.1.8.4.2.2.4.6.5 1.1.4-.6.7-1 1-1.2.3-.2.6-.3.8-.3.3 0 .5.1.8.3.2.2.4.5.5.9.1.3.1.7.1 1.3v2.9c0 .4 0 .7.1.9 0 .1.1.2.2.3 0-.1.1-.1.4-.1v.3h-2.6V83h.1c.2 0 .4-.1.5-.2.1-.1.1-.2.2-.4v-3.6c0-.6-.1-.9-.1-1.2-.1-.3-.4-.5-.7-.5-.2 0-.4.1-.6.2-.2.1-.5.4-.8.7v3.6c0 .5 0 .8.1.8 0 .1.1.2.2.3.1.1.3.1.6.1v.3h-2.6v-.3c.3 0 .5-.1.6-.1.1-.1.2-.2.2-.4v-3.6c0-.6-.1-1-.2-1.2-.2-.3-.4-.5-.7-.5-.2 0-.4.1-.6.2-.3.2-.6.5-.7.7v3.6c0 .4 0 .7.1.8.1.1.1.2.2.3.1.1.3.1.6.1v.3h-2.6c.2 0 .4 0 .5-.1.1-.1.2-.2.2-.3.1-.1.1-.4.1-.8v-2.6c0-.7 0-1.2-.1-1.4 0-.2-.1-.3-.1-.3-.1-.1-.1-.1-.2-.1s-.2 0-.4.1l-.1-.3 1.6-.8h.3l-.1 1.4zm10.4 4.5c-.6.5-.9.8-1 .9-.2.1-.4.2-.7.2-.4 0-.7-.1-.9-.5-.2-.3-.3-.7-.3-1.2 0-.3.1-.6.2-.8.1-.3.4-.6.8-.9s1-.6 1.9-1.1v-.3c0-.7-.1-1.1-.3-1.4-.2-.3-.4-.4-.7-.4-.2 0-.4.1-.6.3-.1.2-.2.3-.2.6v.4c0 .2-.1.4-.1.5-.1.1-.2.2-.3.2s-.3-.1-.3-.2c-.1-.1-.1-.3-.1-.5 0-.4.2-.8.5-1.2.3-.3.8-.5 1.4-.5.5 0 .8.1 1.2.3.2.1.4.4.5.7.1.2.1.6.1 1.3v3.5c0 .1.1.2.1.3l.1.1c.1 0 .1 0 .2-.1l.5-.5v.4c-.4.7-.8 1.1-1.2 1.1-.2 0-.3-.1-.5-.3-.3-.2-.3-.5-.3-.9zm0-.5v-2.6c-.6.3-1 .5-1.1.6-.3.2-.5.4-.6.7-.1.2-.2.5-.2.8 0 .3.1.6.3.9s.3.3.6.3c.1.1.5-.2 1-.7z"/><path class="st5" d="M93.2 77.7c.6-.9 1.2-1.4 1.8-1.4.3 0 .5.1.7.3.2.2.4.5.5.9.1.3.1.8.1 1.4v2.9c0 .4 0 .7.1.9 0 .1.1.2.2.3.1.1.3.1.5.1v.3h-2.6V83h.1c.2 0 .4-.1.5-.1.1-.1.2-.2.2-.4V79c0-.6-.1-1.1-.2-1.3-.1-.3-.3-.4-.6-.4-.5 0-.9.3-1.4 1v3.6c0 .5 0 .7.1.8.1.1.1.2.2.3.1.1.3.1.6.1v.3h-2.6V83h.1c.3 0 .4-.1.6-.3.1-.2.1-.5.1-1v-4c0-.2-.1-.3-.1-.3-.1-.1-.1-.1-.2-.1s-.2 0-.4.1l-.1-.3 1.6-.8h.3l-.1 1.4zm5.2 1.4c0 1 .2 1.8.6 2.4.4.6.8.8 1.3.8.3 0 .6-.1.9-.3.3-.2.5-.7.6-1.2l.2.1c-.1.7-.3 1.3-.7 1.8s-.9.8-1.5.8-1.2-.3-1.6-.9c-.4-.6-.7-1.5-.7-2.5 0-1.2.2-2 .7-2.7.5-.6 1-1 1.7-1 .6 0 1.1.3 1.5.8s.6 1.2.6 2l-3.6-.1zm0-.5h2.4c0-.4-.1-.7-.1-.9-.1-.3-.2-.5-.4-.6-.2-.1-.4-.2-.6-.2-.3 0-.6.1-.8.5-.4.2-.5.7-.5 1.2zm7.6-2.3v2.3h-.2c-.1-.7-.3-1.2-.6-1.5-.2-.3-.5-.4-.9-.4-.3 0-.5.1-.6.3-.2.2-.2.4-.2.6 0 .3.1.5.2.7.1.2.3.4.7.6l.8.5c.8.5 1.2 1.1 1.2 1.9 0 .6-.2 1.1-.6 1.5-.3.4-.8.6-1.2.6-.3 0-.7-.1-1.1-.2-.1-.1-.2-.1-.3-.1-.1 0-.1.1-.2.2h-.2V81h.2c.1.7.3 1.2.6 1.6.3.3.6.5 1 .5.3 0 .5-.1.6-.3.2-.2.3-.4.3-.7 0-.3-.1-.6-.3-.8-.2-.2-.6-.5-1.1-.9-.6-.3-.9-.7-1.1-1-.2-.3-.3-.6-.3-1 0-.6.1-1 .4-1.4.3-.4.7-.6 1.2-.6.2 0 .5.1.8.2.2.1.3.1.4.1.1 0 .1 0 .1-.1 0 0 .1-.1.1-.2l.3-.1z"/></svg>